<svg xmlns="http://www.w3.org/2000/svg" xmlns:xlink="http://www.w3.org/1999/xlink" width="174" height="136"><g fill-rule="evenodd"><path d="M135.313 100H38.686c-.93 0-1.686-.755-1.686-1.686V1.687C37 .756 37.755 0 38.686 0h96.627A1.69 1.69 0 0 1 137 1.687v96.627c0 .93-.756 1.686-1.687 1.686" fill="#FFC800"/><path d="M129.124 88.078c-.07 0-.14-.008-.208-.018a3.3 3.3 0 0 1-2.152-.798c-3.67-3.178-15.755-14.17-17.098-22.198-.815-4.874 4.197-6.693 6.085-7.378l.134-.048c.306-.11.59-.212.823-.32.53-.244 1.064-.462 1.594-.675 2.475-1.002 3.605-1.46 4.357-4.66.168-.72-.415-4.012-2.452-6.334-2.347-2.676-3.844-3.196-6.7-3.745-4.853-.932-6.824-.226-8.425 3.028-1.548 3.15-2.35 6.716-3.2 10.493-.562 2.5-1.14 5.073-1.962 7.577-1.88 5.723-6.656 16.604-7.194 17.826-.263.597-4.05 6.484-4.753 6.793-.346.146-.707.014-.95-.1-.695-.327-2.13-1.41-2.458-2.54-2.34-8.1-10.54-24.608-15.44-34.472l-.486-.98c-2.074 4.887-4.508 10.766-5.437 13.57l-.642 1.96c-1.538 4.713-3.127 9.585-5.66 13.724-1.073 1.763-2.204 3.216-3.458 4.445-.966.944-1.925 1.86-3.044 2.7-2.742 2.085-6.963 2.016-10.704 1.786-6.71-.407-13.25-2.072-19.572-3.682-4.963-1.265-9.584-2.195-13.842-3.014-.99-.2-3.303-1.196-4-2.36-1.417-2.36 3.028-6.62 3.934-7.45 7.38-6.766 14.326-11.438 21.232-14.283l3.986-1.576c3.968-1.538 8.055-3.122 11.544-5.335-9.61-1.84-22.775-3.19-32.615-1.74-2.562.625-2.85.414-3.06.26-.366-.267-.296-.72-.265-.91.008-.053 1.387-5.492 2.266-5.786.573-.19 24.568-1.21 37.592 2.307 8.068 2.177 8.225 4.03 8.276 4.638.16 1.898-7.29 5.81-7.364 5.85-5.54 2.894-8.45 4.392-13.998 6.8-.744.323-1.5.61-2.246.895l-1.636.64c-5.935 2.445-12 6.477-18.485 12.312 3.478.688 6.924 1.565 10.268 2.418 6.033 1.537 12.273 3.127 18.38 3.498 3.54.214 5.68.052 6.374-.473.83-.63 1.588-1.358 2.423-2.177.86-.84 1.66-1.88 2.452-3.178 2.136-3.49 3.603-7.99 5.024-12.34l.654-1.993c1.73-5.224 7.785-19.116 8.04-19.706l.062-.14 3.324-2.75c.087-.045.56-.262 1.187-.04.677.24 1.252.9 1.707 1.934.077.18.518 1.063 1.127 2.286 2.998 6.025 10.75 21.612 15.356 33.072 2.256-5.293 4.896-11.656 5.908-14.733.72-2.19 1.24-4.5 1.788-6.942.902-4.01 1.827-8.13 3.718-11.973 3.797-7.723 10.278-7.563 15.503-6.557 3.45.663 6.6 1.56 10.37 5.848 3.334 3.8 4.6 9.157 3.9 12.14-1.524 6.494-5.42 8.07-8.262 9.22-.463.188-.895.362-1.324.56-.46.2-.94.384-1.447.568-.376.137-1.234.45-1.75.716.923 3.33 5.285 8.926 11.61 14.887l18.686-39.294c.483-1.02 2.65-2.515 3.08-2.805l.165-.11h.2c1.293.012 2.446.764 2.97 1.917l1.094 2.346 18.373 39.875c0 .6-2.016 5.005-2.688 5.64-.183.172-.388.255-.6.24-.255-.015-.785-.046-2.1-2.424-3.685-6.415-8.51-17.332-12.765-26.963l-4.325-9.68-16.08 33.814c-.024.053-3.425 5.673-4.167 5.967-.23.09-.396.124-.548.124" fill="#161616"/><g fill="#050505"><path d="M36.642 109.043l-5.666 7.23h5.666v1.656h-8.22v-1.272l5.686-7.26h-5.362v-1.685h7.895zm1.758 8.887h1.833v-10.216H38.4zm12.62-10.217l-4.063 10.215h-1.37L41.5 107.713h2.027l2.75 7.237 2.734-7.237zm1.267 10.217h1.833v-10.216h-1.833zm4.248-10.217h1.833v8.48h4.36v1.735h-6.2zm6.712 5.104c0-2.797 1.566-5.27 4.92-5.27 2.02 0 3.637 1.026 4.46 2.935l-1.7.68c-.383-1.345-1.436-1.865-2.764-1.865-2.16 0-3.1 1.554-3.1 3.448 0 2.032.93 3.586 3.117 3.586 1.313 0 2.216-.52 2.764-1.895l1.696.694c-.808 1.9-2.432 2.943-4.46 2.943-3.356 0-4.936-2.45-4.936-5.256m18.176 0c0-1.923-.802-3.622-2.988-3.622s-2.987 1.7-2.987 3.622c0 1.93.802 3.63 2.987 3.63s2.988-1.7 2.988-3.63m-7.9 0c0-2.784 1.553-5.256 4.92-5.256s4.922 2.473 4.922 5.256-1.553 5.256-4.922 5.256-4.92-2.473-4.92-5.256m11.463 1.128v-6.232H86.8v6.022c0 1.65.433 2.567 2.07 2.567 1.646 0 2.072-.918 2.072-2.567v-6.022h1.833v6.16c0 2.574-1.168 4.2-3.904 4.2s-3.896-1.627-3.896-4.128m13.542-1.88c.974-.043 1.55-.55 1.55-1.316 0-.846-.656-1.395-1.703-1.395H96.9v2.7h1.616zm-3.463-4.352h3.298c1.905 0 3.528 1.1 3.528 3.007 0 1.288-.837 2.263-1.992 2.66l2.836 4.547h-2.1l-2.512-4.367h-1.227v4.367h-1.833V107.7zm14.516 6.427l-1.37-3.73-1.38 3.73h2.75zm-2.064-6.427h1.37l4.062 10.215h-1.976l-.816-2.22h-3.904l-.822 2.22h-2l4.084-10.215zm15.2 4.692v5.524h-1.45l-.16-1.44c-.548.96-1.66 1.583-3.016 1.583-3.356 0-4.936-2.45-4.936-5.256 0-2.797 1.552-5.27 4.92-5.27 2.006 0 3.623 1.027 4.445 2.935l-1.624.68c-.47-1.387-1.536-2-2.836-2-2.158 0-3.088 1.698-3.088 3.593 0 2.032.93 3.688 3.117 3.688 1.594 0 2.72-.882 2.778-2.545h-2.244v-1.482h4.1zm2.155-4.692h6.784v1.685h-4.95v2.58h4.6v1.685h-4.6v2.53h4.95v1.735h-6.784zm15.523 3.904c.765-.462 1.342-.947 1.342-1.612 0-.543-.368-1.034-1.06-1.034-.606 0-1.14.37-1.14 1.05 0 .535.542 1.23.86 1.597zm1.674 4.136l-1.927-2.206c-.96.593-1.76 1.18-1.76 2.025 0 .687.656 1.026 1.602 1.026.837 0 1.544-.325 2.086-.846zm2.373 2.725l-1.34-1.54c-.83.723-1.884 1.157-3.075 1.157-1.86 0-3.34-.903-3.34-2.552 0-1.547 1.155-2.43 2.36-3.145-.446-.448-1.204-1.3-1.204-2.408 0-1.496 1.428-2.4 2.82-2.4 1.48 0 2.706 1.042 2.706 2.387 0 1.236-.844 2.046-1.84 2.718l1.443 1.62a4.24 4.24 0 0 0 .246-1.417l1.717.173c-.05.94-.318 1.83-.764 2.588l1.514 1.706-1.24 1.113zM6.8 130.786l-1.37-3.73-1.38 3.73H6.8zm-2.064-6.427h1.37l4.062 10.216H8.205l-.816-2.22H3.484l-.822 2.22h-2l4.084-10.216zm14.58.001v10.215h-1.833l-4.272-7.18v7.18h-1.76V124.36h1.82l4.287 7.143v-7.143zm4.5 1.64H20.62v-1.64h8.22V126h-3.2v8.575h-1.833zm6.32 8.574h1.833v-10.216h-1.833zm4.016-3.674h4.215v-1.33h-4.215zm9.86-2.2c.974-.043 1.55-.55 1.55-1.316 0-.846-.656-1.396-1.703-1.396h-1.464v2.7h1.616zm-3.463-4.352h3.298c1.905 0 3.528 1.1 3.528 3.007 0 1.287-.837 2.263-1.992 2.66l2.836 4.547h-2.1l-2.512-4.367H42.38v4.367h-1.83V124.36zm14.518 6.428l-1.37-3.73-1.378 3.73h2.75zm-2.064-6.427h1.37l4.063 10.216H56.46l-.815-2.22h-3.903l-.823 2.22h-2l4.084-10.216z"/><use xlink:href="#B"/><use xlink:href="#B" x="8.397"/><path d="M76.266 134.574H78.1v-10.216h-1.833z"/><use xlink:href="#B" x="20.883"/><path d="M99.078 124.36v10.215h-1.76v-7.627l-2.526 6.738h-1.775l-2.525-6.738v7.627h-1.76V124.36H91.2l2.706 7.266 2.705-7.266zm2.28 6.23v-6.232h1.826v6.022c0 1.648.433 2.567 2.07 2.567 1.646 0 2.07-.918 2.07-2.567v-6.022h1.834v6.16c0 2.574-1.17 4.2-3.905 4.2s-3.896-1.627-3.896-4.128m9.075 1.1l1.82-.462c.13 1.272 1.032 1.836 2.114 1.836 1.1 0 1.682-.578 1.682-1.3 0-2.118-4.936-1.4-4.936-4.735 0-1.807 1.465-2.82 3.182-2.82 1.256 0 2.403.55 3.104 1.792l-1.522.933c-.354-.694-.96-1.1-1.646-1.1-.722 0-1.285.44-1.285 1.1 0 1.923 4.935 1.273 4.935 4.664 0 1.93-1.594 3.094-3.543 3.094-1.804 0-3.58-1-3.904-3m8.947-.792h4.215v-1.33h-4.215zm11.005-.114l-1.37-3.73-1.378 3.73h2.75zm-2.064-6.427h1.37l4.063 10.216h-1.978l-.815-2.22h-3.903l-.823 2.22h-2l4.084-10.216zm10.166 4.35c.974-.043 1.55-.55 1.55-1.316 0-.846-.656-1.396-1.703-1.396h-1.464v2.7h1.616zm-3.463-4.352h3.298c1.905 0 3.528 1.1 3.528 3.007 0 1.287-.837 2.263-1.992 2.66l2.836 4.547h-2.1l-2.512-4.367h-1.227v4.367h-1.833v-10.2zm12.982 8.468c.945 0 1.494-.456 1.494-1.417 0-.73-.606-1.352-1.567-1.352h-2.1v2.77h2.172zm-.296-4.353c.714 0 1.407-.253 1.407-1.257 0-.795-.677-1.2-1.55-1.2h-1.732v2.458h1.876zm-3.7-4.112h3.536c1.55 0 3.262.708 3.262 2.754 0 .933-.556 1.685-1.134 1.996.93.37 1.64 1.482 1.64 2.5 0 1.902-1.594 2.964-3.326 2.964H144V124.36zm9.097 0h6.784v1.684h-4.95v2.58h4.6v1.685h-4.6v2.53h4.95v1.735h-6.784zm8.885 10.214h1.833v-10.216h-1.833zm6.323-8.574h-3.197v-1.64h8.22V126h-3.2v8.575h-1.833z"/></g></g><defs ><path id="B" d="M58.745 131.69l1.82-.462c.13 1.272 1.03 1.836 2.113 1.836 1.1 0 1.68-.578 1.68-1.3 0-2.118-4.936-1.4-4.936-4.735 0-1.807 1.466-2.82 3.183-2.82 1.256 0 2.404.55 3.104 1.792l-1.523.933c-.353-.694-.96-1.09-1.646-1.09-.722 0-1.283.44-1.283 1.09 0 1.923 4.935 1.273 4.935 4.664 0 1.93-1.595 3.094-3.543 3.094-1.804 0-3.58-1-3.903-3"/></defs></svg>