<?xml version="1.0" encoding="UTF-8" standalone="no"?>
<!DOCTYPE svg PUBLIC "-//W3C//DTD SVG 1.1//EN" "http://www.w3.org/Graphics/SVG/1.1/DTD/svg11.dtd">
<svg width="100%" height="100%" viewBox="0 0 2909 421" version="1.1" xmlns="http://www.w3.org/2000/svg" xmlns:xlink="http://www.w3.org/1999/xlink" xml:space="preserve" xmlns:serif="http://www.serif.com/" style="fill-rule:evenodd;clip-rule:evenodd;stroke-linejoin:round;stroke-miterlimit:1.41421;">
    <g transform="matrix(4.16667,0,0,4.16667,0,0)">
        <path d="M131.306,81.474C123.329,81.474 117.206,78.098 112.938,71.35C109.275,65.604 107.446,58.507 107.446,50.061C107.446,42.399 109.233,35.717 112.805,30.015C116.948,23.398 122.633,20.086 129.869,20.086C139.717,20.086 146.799,24.831 151.115,34.323L170.006,25.309C160.777,8.986 147.432,0.821 129.977,0.821C116.565,0.821 105.55,5.579 96.931,15.089C89.304,23.507 85.058,33.861 84.178,46.14L48.222,46.14L48.222,64.264L69.841,64.264C67.786,76.146 60.503,82.086 47.993,82.086C40.296,82.086 34.29,79.333 29.985,73.829C25.674,68.329 23.521,60.792 23.521,51.225C23.521,41.356 25.773,33.703 30.273,28.26C34.778,22.822 41.141,20.103 49.363,20.103C53.471,20.103 57.666,21.437 61.952,24.098C66.238,26.767 69.211,29.912 70.871,33.536L88.844,22.79C77.791,8.159 64.054,0.842 47.631,0.842C33.17,0.842 21.621,5.585 12.972,15.061C4.325,24.536 0,37.054 0,52.602C0,66.841 4.005,78.451 12.02,87.424C20.038,96.402 30.553,100.89 43.571,100.89C54.095,100.89 63.201,97.262 70.89,90.012L70.89,99.12L89.694,99.12L89.694,77.307C91.54,80.931 93.827,84.25 96.572,87.251C104.952,96.417 116.107,101 130.042,101C134.822,101 140.856,100.044 144.962,98.82L155.997,69.714L151.415,67.349C145.925,76.708 139.324,81.474 131.306,81.474Z" style="fill:rgb(35,31,32);fill-rule:nonzero;"/>
        <path d="M308.937,77.603C305.204,83.964 300.614,87.145 295.165,87.145C289.745,87.145 285.583,84.85 282.683,80.264C280.194,76.361 278.948,71.536 278.948,65.797C278.948,60.591 280.163,56.05 282.592,52.175C285.405,47.676 289.27,45.427 294.187,45.427C300.881,45.427 305.694,48.651 308.626,55.103L315.032,52.047L315.032,80.764L308.937,77.603ZM239.715,63.772L228.006,63.772L228.006,46.065L240.744,46.065C244.555,46.065 247.298,46.804 248.964,48.283C250.633,49.763 251.467,52.158 251.467,55.473C251.467,61.005 247.549,63.772 239.715,63.772ZM178.039,76.648C180.852,68.613 183.577,59.387 186.212,48.971L194.792,76.648L178.039,76.648ZM355.11,57.334L331.447,57.334L331.447,34.118L315.032,34.118L315.032,40.472C309.471,35.054 302.55,32.335 294.259,32.335C285.146,32.335 277.664,35.569 271.804,42.031C269.841,44.199 268.214,46.559 266.909,49.103C265.993,45.074 263.952,41.804 260.743,39.321C256.254,35.848 249.892,34.112 241.655,34.112L222.165,34.112C218.774,34.112 216.068,34.112 214.046,34.112L211.86,34.112L211.86,79.757L194.972,34.105L178.128,34.105L153.646,98.701L170.939,98.701L174.172,88.255L198.386,88.255L201.754,98.701L228.006,98.694L228.006,75.589L238.241,75.589L251.335,98.694L269.039,98.694L254.321,72.859C258.178,71.102 261.07,69.247 263.032,67.295C263.185,77.087 266.021,85.017 271.561,91.072C277.255,97.3 284.835,100.416 294.305,100.416C300.369,100.416 305.636,98.965 310.103,96.067C311.696,95.021 313.341,93.649 315.032,91.988L315.032,98.701L331.447,98.701L331.447,71.034L354.887,71.034L354.887,98.701L371.389,98.701L371.389,34.118L355.11,34.118L355.11,57.334Z" style="fill:rgb(35,31,32);fill-rule:nonzero;"/>
        <path d="M617.12,73.753C617.12,78.557 616.286,81.93 614.615,83.867C612.942,85.807 610.139,86.778 606.199,86.778C601.783,86.778 598.681,85.911 596.891,84.18C595.1,82.451 594.206,79.466 594.206,75.229L594.206,34.095L528.82,34.103L504.375,60.423L504.375,34.103L489.029,34.103L489.029,86.078L451.432,86.078L451.432,70.707L481.153,70.707L481.153,58.312L451.432,58.312L451.432,46.764L483.283,46.764L483.283,34.103L378.207,34.098L378.207,98.701L394.334,98.701L394.334,46.827L406.676,46.827L406.676,98.701L423.045,98.701L423.045,46.827L435.306,46.827L435.306,98.694L489.029,98.694L489.029,98.697L504.375,98.697L504.375,79.877L514.537,69.577L531.798,98.697L550.233,98.697C548.181,95.575 546.293,92.557 544.565,89.645C538.763,79.915 532.367,69.323 525.377,57.868C526.641,56.665 530.108,52.979 535.775,46.816L551.933,46.816L551.933,98.686L568.302,98.686L568.302,46.816L578.001,46.816L578.001,74.291C578.001,82.435 580.444,88.799 585.343,93.381C590.235,97.962 596.993,100.252 605.616,100.252C614.21,100.252 621,97.798 625.984,92.887C630.968,87.979 633.459,81.257 633.459,72.723L633.459,34.095L617.12,34.095L617.12,73.753Z" style="fill:rgb(35,31,32);fill-rule:nonzero;"/>
        <path d="M668.14,63.767L656.427,63.767L656.427,46.053L669.167,46.053C672.982,46.053 675.724,46.796 677.393,48.275C679.06,49.754 679.898,52.15 679.898,55.465C679.898,60.999 675.977,63.767 668.14,63.767ZM682.751,72.859C687.51,70.689 690.827,68.375 692.7,65.91C694.843,63.089 695.913,59.209 695.913,54.282C695.913,47.775 693.666,42.786 689.177,39.308C684.685,35.836 678.318,34.098 670.08,34.098L650.583,34.098C647.19,34.098 644.487,34.098 642.463,34.098L640.277,34.098L640.277,98.701L656.427,98.701L656.427,75.589L666.666,75.589L679.765,98.701L697.475,98.701L682.751,72.859Z" style="fill:rgb(35,31,32);fill-rule:nonzero;"/>
    </g>
</svg>
