<svg id="Layer_1" data-name="Layer 1" xmlns="http://www.w3.org/2000/svg" viewBox="0 0 200 155"><title>zara-logo</title><rect x="43.81" width="113.27" height="113.27" rx="1.91" style="fill:#ffc800"/><path d="M146.23,100.57l-.24,0a3.81,3.81,0,0,1-2.47-.92c-4.23-3.65-18.13-16.27-19.67-25.49-.94-5.59,4.83-7.68,7-8.47l.15,0c.35-.13.68-.25.95-.37.61-.28,1.22-.53,1.83-.77,2.85-1.15,4.15-1.68,5-5.35.2-.83-.47-4.61-2.82-7.28-2.7-3.07-4.42-3.67-7.71-4.3-5.58-1.07-7.85-.25-9.69,3.48s-2.7,7.71-3.68,12c-.65,2.87-1.31,5.82-2.26,8.7-2.16,6.57-7.65,19.06-8.27,20.47-.3.68-4.66,7.44-5.47,7.79a1.34,1.34,0,0,1-1.09-.11A6,6,0,0,1,95,97c-2.69-9.3-12.12-28.25-17.76-39.58l-.56-1.12c-2.38,5.61-5.18,12.36-6.25,15.58l-.74,2.24c-1.77,5.42-3.6,11-6.51,15.76a25.93,25.93,0,0,1-4,5.1,36.33,36.33,0,0,1-3.5,3.12c-3.15,2.39-8,2.31-12.31,2-7.72-.47-15.24-2.38-22.52-4.23-5.71-1.45-11-2.52-15.92-3.46-1.14-.22-3.8-1.37-4.6-2.71-1.63-2.71,3.48-7.6,4.52-8.55,8.49-7.77,16.48-13.14,24.43-16.4,1.49-.62,3-1.21,4.58-1.81a76.88,76.88,0,0,0,13.28-6.13c-11.06-2.11-26.2-3.66-37.52-2-2.94.72-3.28.48-3.52.3a1,1,0,0,1-.3-1c0-.07,1.59-6.31,2.61-6.65.65-.22,28.25-1.39,43.24,2.65,9.28,2.5,9.46,4.63,9.52,5.33.18,2.18-8.39,6.67-8.47,6.71C46.31,65.5,43,67.22,36.58,70c-.85.37-1.72.7-2.58,1l-1.88.73c-6.83,2.81-13.79,7.44-21.26,14.14,4,.79,8,1.8,11.81,2.77,6.94,1.77,14.11,3.59,21.14,4,4.07.25,6.53.06,7.33-.54a29.92,29.92,0,0,0,2.79-2.5A18.61,18.61,0,0,0,56.75,86c2.46-4,4.15-9.17,5.78-14.17l.75-2.29c2-6,9-21.95,9.25-22.62l.07-.16,3.83-3.16a1.77,1.77,0,0,1,1.36,0,3.73,3.73,0,0,1,2,2.22c.09.21.6,1.22,1.3,2.63,3.45,6.92,12.37,24.81,17.66,38,2.6-6.08,5.64-13.38,6.8-16.92.83-2.51,1.43-5.16,2.06-8,1-4.61,2.1-9.34,4.27-13.75,4.37-8.87,11.83-8.69,17.84-7.53a18.49,18.49,0,0,1,11.93,6.71c3.83,4.37,5.29,10.52,4.48,13.94-1.75,7.46-6.23,9.27-9.5,10.59-.53.22-1,.42-1.52.64s-1.09.44-1.67.65a20.23,20.23,0,0,0-2,.83c1.06,3.82,6.08,10.24,13.35,17.09l21.5-45.12c.55-1.17,3-2.89,3.54-3.22l.19-.12h.23a3.75,3.75,0,0,1,3.41,2.2l1.26,2.69C196,92.3,196,92.57,196,92.85a25,25,0,0,1-3.1,6.48.91.91,0,0,1-.69.27c-.29,0-.9,0-2.41-2.78-4.24-7.36-9.79-19.9-14.69-31-1.8-4.08-3.52-8-5-11.11l-18.5,38.82c0,.06-3.94,6.52-4.79,6.86A1.81,1.81,0,0,1,146.23,100.57Z" style="fill:#161616"/><path d="M42.57,125.2l-6.51,8.3h6.51v1.9H33.12v-1.46l6.54-8.33H33.49v-1.94h9.08Z" style="fill:#050505"/><path d="M44.6,123.67h2.1V135.4H44.6Z" style="fill:#050505"/><path d="M59.11,123.67,54.44,135.4H52.86l-4.7-11.73H50.5L53.66,132l3.14-8.31Z" style="fill:#050505"/><path d="M60.57,123.67h2.11V135.4H60.57Z" style="fill:#050505"/><path d="M65.46,123.67h2.11v9.74h5v2H65.46Z" style="fill:#050505"/><path d="M73.18,129.53c0-3.21,1.8-6,5.66-6A5.35,5.35,0,0,1,84,126.85l-2,.78a3,3,0,0,0-3.18-2.14c-2.48,0-3.55,1.78-3.55,4,0,2.33,1.07,4.12,3.58,4.12A3.08,3.08,0,0,0,82,131.39l2,.8a5.32,5.32,0,0,1-5.13,3.38C75,135.57,73.18,132.75,73.18,129.53Z" style="fill:#050505"/><path d="M85,129.53c0-3.19,1.79-6,5.66-6s5.67,2.84,5.67,6-1.79,6-5.67,6S85,132.73,85,129.53Zm9.1,0c0-2.21-.92-4.16-3.44-4.16s-3.43,1.95-3.43,4.16.92,4.17,3.43,4.17S94.08,131.75,94.08,129.53Z" style="fill:#050505"/><path d="M98.17,130.83v-7.16h2.1v6.92c0,1.89.5,2.94,2.38,2.94s2.38-1.05,2.38-2.94v-6.92h2.11v7.07c0,3-1.34,4.83-4.49,4.83S98.17,133.7,98.17,130.83Z" style="fill:#050505"/><path d="M109.76,123.67h3.8c2.19,0,4.06,1.25,4.06,3.45a3.23,3.23,0,0,1-2.29,3.06l3.26,5.22h-2.42l-2.89-5h-1.41v5h-2.11Zm4,5c1.12,0,1.78-.63,1.78-1.51s-.75-1.6-2-1.6h-1.68v3.11Z" style="fill:#050505"/><path d="M124.09,123.67h1.58l4.67,11.73h-2.27l-.94-2.55h-4.49l-1,2.55h-2.3Zm2.37,7.38-1.57-4.28-1.59,4.28Z" style="fill:#050505"/><path d="M141.57,129.06v6.34h-1.66l-.19-1.65a3.89,3.89,0,0,1-3.47,1.82c-3.86,0-5.67-2.82-5.67-6s1.78-6,5.66-6a5.34,5.34,0,0,1,5.11,3.37l-1.87.78a3.23,3.23,0,0,0-3.26-2.31c-2.48,0-3.55,2-3.55,4.13,0,2.33,1.07,4.23,3.58,4.23a2.89,2.89,0,0,0,3.2-2.92h-2.58v-1.7Z" style="fill:#050505"/><path d="M144.05,123.67h7.8v1.94h-5.69v3h5.3v1.93h-5.3v2.91h5.69v2h-7.8Z" style="fill:#050505"/><path d="M166.56,136,165,134.26a5.33,5.33,0,0,1-3.54,1.33c-2.14,0-3.84-1-3.84-2.93s1.33-2.79,2.71-3.61a4.12,4.12,0,0,1-1.38-2.76,3,3,0,0,1,3.24-2.76,2.94,2.94,0,0,1,3.12,2.74c0,1.42-1,2.35-2.12,3.12l1.66,1.86a4.94,4.94,0,0,0,.28-1.63l2,.2a6.6,6.6,0,0,1-.88,3l1.74,2Zm-2.73-3.13-2.21-2.53c-1.11.68-2,1.35-2,2.32,0,.79.76,1.18,1.84,1.18A3.38,3.38,0,0,0,163.83,132.9Zm-1.92-4.75c.88-.53,1.54-1.08,1.54-1.85a1.14,1.14,0,0,0-1.22-1.18,1.2,1.2,0,0,0-1.31,1.2A3.55,3.55,0,0,0,161.91,128.15Z" style="fill:#050505"/><path d="M5.89,142.78H7.46l4.68,11.73H9.86L8.92,152H4.43l-.94,2.55H1.19Zm2.37,7.38-1.58-4.28L5.1,150.16Z" style="fill:#050505"/><path d="M22.64,142.78v11.73H20.53l-4.91-8.24v8.24h-2V142.78h2.1l4.93,8.2v-8.2Z" style="fill:#050505"/><path d="M27.82,144.67H24.14v-1.89h9.45v1.89H29.93v9.84H27.82Z" style="fill:#050505"/><path d="M35.09,142.78H37.2v11.73H35.09Z" style="fill:#050505"/><path d="M39.71,148.77h4.85v1.52H39.71Z" style="fill:#050505"/><path d="M47.07,142.78h3.79c2.19,0,4.06,1.26,4.06,3.46a3.22,3.22,0,0,1-2.29,3l3.26,5.22H53.48l-2.89-5H49.18v5H47.07Zm4,5c1.12-.05,1.79-.63,1.79-1.51s-.76-1.6-2-1.6H49.19v3.11Z" style="fill:#050505"/><path d="M61.39,142.78H63l4.68,11.73H65.37L64.43,152H59.94L59,154.51H56.7Zm2.38,7.38-1.58-4.28-1.58,4.28Z" style="fill:#050505"/><path d="M68,151.2l2.09-.53a2.24,2.24,0,0,0,2.43,2.11c1.26,0,1.94-.67,1.94-1.5,0-2.43-5.68-1.62-5.68-5.43,0-2.08,1.68-3.24,3.66-3.24A3.93,3.93,0,0,1,76,144.67l-1.75,1.07a2.14,2.14,0,0,0-1.9-1.26,1.33,1.33,0,0,0-1.47,1.26c0,2.21,5.68,1.46,5.68,5.35,0,2.22-1.84,3.55-4.08,3.55A4.25,4.25,0,0,1,68,151.2Z" style="fill:#050505"/><path d="M77.66,151.2l2.09-.53a2.24,2.24,0,0,0,2.43,2.11c1.25,0,1.93-.67,1.93-1.5,0-2.43-5.67-1.62-5.67-5.43,0-2.08,1.68-3.24,3.66-3.24a3.93,3.93,0,0,1,3.57,2.06l-1.76,1.07A2.11,2.11,0,0,0,82,144.48a1.33,1.33,0,0,0-1.47,1.26c0,2.21,5.67,1.46,5.67,5.35,0,2.22-1.83,3.55-4.07,3.55A4.25,4.25,0,0,1,77.66,151.2Z" style="fill:#050505"/><path d="M88.15,142.78h2.11v11.73H88.15Z" style="fill:#050505"/><path d="M92,151.2l2.09-.53a2.24,2.24,0,0,0,2.43,2.11c1.26,0,1.94-.67,1.94-1.5,0-2.43-5.68-1.62-5.68-5.43,0-2.08,1.69-3.24,3.66-3.24a3.91,3.91,0,0,1,3.57,2.06l-1.75,1.07a2.13,2.13,0,0,0-1.89-1.26,1.34,1.34,0,0,0-1.48,1.26c0,2.21,5.68,1.46,5.68,5.35,0,2.22-1.84,3.55-4.08,3.55A4.26,4.26,0,0,1,92,151.2Z" style="fill:#050505"/><path d="M114.39,142.78v11.73h-2v-8.76l-2.91,7.74h-2l-2.9-7.74v8.76h-2V142.78h2.84l3.11,8.34,3.11-8.34Z" style="fill:#050505"/><path d="M117,149.94v-7.16h2.1v6.92c0,1.89.49,2.94,2.38,2.94s2.38-1,2.38-2.94v-6.92H126v7.07c0,3-1.35,4.83-4.49,4.83S117,152.81,117,149.94Z" style="fill:#050505"/><path d="M127.45,151.2l2.1-.53a2.23,2.23,0,0,0,2.43,2.11c1.25,0,1.93-.67,1.93-1.5,0-2.43-5.67-1.62-5.67-5.43,0-2.08,1.68-3.24,3.66-3.24a3.91,3.91,0,0,1,3.56,2.06l-1.75,1.07a2.11,2.11,0,0,0-1.89-1.26,1.34,1.34,0,0,0-1.48,1.26c0,2.21,5.68,1.46,5.68,5.35,0,2.22-1.83,3.55-4.07,3.55A4.27,4.27,0,0,1,127.45,151.2Z" style="fill:#050505"/><path d="M137.75,148.77h4.84v1.52h-4.84Z" style="fill:#050505"/><path d="M148,142.78h1.58l4.67,11.73H152l-.94-2.55h-4.49l-1,2.55h-2.3Zm2.38,7.38-1.58-4.28-1.59,4.28Z" style="fill:#050505"/><path d="M155.74,142.78h3.79c2.2,0,4.06,1.26,4.06,3.46a3.22,3.22,0,0,1-2.29,3l3.26,5.22h-2.41l-2.89-5h-1.41v5h-2.11Zm4,5c1.12-.05,1.79-.63,1.79-1.51s-.76-1.6-2-1.6h-1.68v3.11Z" style="fill:#050505"/><path d="M166.07,142.78h4.06c1.79,0,3.76.82,3.76,3.16a2.65,2.65,0,0,1-1.31,2.3,3.26,3.26,0,0,1,1.89,2.87c0,2.18-1.84,3.4-3.83,3.4h-4.57Zm4.26,4.73c.83,0,1.62-.29,1.62-1.45,0-.91-.78-1.38-1.78-1.38h-2v2.83Zm.34,5c1.09,0,1.72-.52,1.72-1.62a1.64,1.64,0,0,0-1.8-1.56h-2.41v3.18Z" style="fill:#050505"/><path d="M176.53,142.78h7.8v1.94h-5.69v3h5.3v1.93h-5.3v2.91h5.69v2h-7.8Z" style="fill:#050505"/><path d="M186.76,142.78h2.11v11.73h-2.11Z" style="fill:#050505"/><path d="M194,144.67h-3.68v-1.89h9.45v1.89h-3.66v9.84H194Z" style="fill:#050505"/></svg>