<?xml version="1.0" encoding="UTF-8"?>
<svg width="40px" height="40px" viewBox="0 0 40 40" version="1.1" xmlns="http://www.w3.org/2000/svg" xmlns:xlink="http://www.w3.org/1999/xlink">
    <!-- Generator: Sketch 52.5 (67469) - http://www.bohemiancoding.com/sketch -->
    <title>icon/contact/hours</title>
    <desc>Created with Sketch.</desc>
    <g id="icon/contact/hours" stroke="none" stroke-width="1" fill="none" fill-rule="evenodd">
        <path d="M29.4930816,10.0314509 C24.1182918,4.6562171 15.4053338,4.6562171 10.0310171,10.0314217 C4.6563471,15.4056478 4.6563471,24.1186057 10.0311047,29.4924754 C15.405329,34.8675876 24.1187406,34.8675876 29.4930524,29.4923878 C34.8677224,24.1181618 34.8677224,15.4052038 29.4930816,10.0314509 Z M30.9072952,30.9065722 C24.7519956,37.0628886 14.7720739,37.0628886 8.61689115,30.906689 C2.46105575,24.7518705 2.46105575,14.7724475 8.61677434,8.61723734 C14.7720544,2.46094036 24.7514447,2.46092575 30.9072222,8.61716433 C37.0630138,14.7719864 37.0629992,24.7513767 30.9072952,30.9065722 Z M24.7548558,23.3405123 L23.3406423,24.7547258 L18.7620348,20.1761183 L18.7620348,10.2380952 L20.7620348,10.2380952 L20.7620348,19.3476912 L24.7548558,23.3405123 Z M6.42870143,20.7619048 L6.42870143,18.7619048 L8.33346333,18.7619048 L8.33346333,20.7619048 L6.42870143,20.7619048 Z M31.1906062,20.7619048 L31.1906062,18.7619048 L33.0953681,18.7619048 L33.0953681,20.7619048 L31.1906062,20.7619048 Z M20.7620348,33.0952381 L18.7620348,33.0952381 L18.7620348,31.1904762 L20.7620348,31.1904762 L20.7620348,33.0952381 Z M20.7620348,8.33333333 L18.7620348,8.33333333 L18.7620348,6.42857143 L20.7620348,6.42857143 L20.7620348,8.33333333 Z" id="Combined-Shape" fill="#FFC800" fill-rule="nonzero"></path>
    </g>
</svg>