<?xml version="1.0" encoding="UTF-8"?>
<svg width="40px" height="40px" viewBox="0 0 40 40" version="1.1" xmlns="http://www.w3.org/2000/svg" xmlns:xlink="http://www.w3.org/1999/xlink">
    <!-- Generator: Sketch 52.5 (67469) - http://www.bohemiancoding.com/sketch -->
    <title>icon/contact/location</title>
    <desc>Created with Sketch.</desc>
    <g id="icon/contact/location" stroke="none" stroke-width="1" fill="none" fill-rule="evenodd">
        <path d="M19.6912712,16.2585806 C17.9987857,16.2585806 16.6267551,14.88655 16.6267551,13.1940645 C16.6267551,11.501579 17.9987857,10.1295484 19.6912712,10.1295484 C21.3837567,10.1295484 22.7557874,11.501579 22.7557874,13.1940645 C22.7557874,14.88655 21.3837567,16.2585806 19.6912712,16.2585806 Z M19.6912712,14.2585806 C20.2791872,14.2585806 20.7557874,13.7819805 20.7557874,13.1940645 C20.7557874,12.6061485 20.2791872,12.1295484 19.6912712,12.1295484 C19.1033552,12.1295484 18.6267551,12.6061485 18.6267551,13.1940645 C18.6267551,13.7819805 19.1033552,14.2585806 19.6912712,14.2585806 Z M26.1119882,19.2973975 C25.5296054,20.6154037 24.7752891,22.0006668 23.8896363,23.4232079 C23.139188,24.6285827 22.336644,25.7940461 21.5339835,26.8772748 C21.2528231,27.2567142 20.9914361,27.5991474 20.7563462,27.8991731 C20.6139795,28.0808639 20.511064,28.2091876 20.4541348,28.2787107 L19.677904,29.2266582 L18.9047083,28.2762334 C18.8479878,28.2065116 18.7454301,28.077806 18.6035493,27.8955776 C18.3692503,27.5946493 18.1087395,27.2512123 17.8285201,26.8706955 C17.0285438,25.7843882 16.2286837,24.6158801 15.4807545,23.4077199 C14.6032088,21.9901851 13.854985,20.609936 13.275918,19.2966909 C12.4408016,17.4027605 11.9815938,15.7070737 11.9815938,14.2376774 C11.9815938,9.70330629 15.414892,6 19.6912712,6 C23.9616956,6 27.3821561,9.69571619 27.4009398,14.2334671 C27.4072355,15.7048722 26.9494443,17.4021281 26.1119882,19.2973975 Z M19.9270599,25.6865622 C20.6995332,24.6440726 21.472123,23.522109 22.1917995,22.3661601 C23.0312259,21.017868 23.7419582,19.7126447 24.2826191,18.4890606 C25.0164124,16.8283931 25.4058595,15.3845038 25.4009578,14.2419675 C25.386619,10.7706355 22.8223583,8 19.6912712,8 C16.5547043,8 13.9815938,10.77547 13.9815938,14.2376774 C13.9815938,15.3822409 14.3730447,16.8277264 15.105911,18.4897673 C15.6438772,19.7098014 16.3491986,21.0109085 17.1812718,22.3549898 C17.8987135,23.5139022 18.6688938,24.6390513 19.4389578,25.68474 C19.5222152,25.7977973 19.6036047,25.9073726 19.6829317,26.0133004 C19.7623143,25.9079536 19.8437549,25.7989864 19.9270599,25.6865622 Z M25.3686906,23.483871 L25.3686906,21.483871 L30.6051231,21.483871 L37.3825424,33.8064516 L2,33.8064516 L8.77741935,21.483871 L14.0138519,21.483871 L14.0138519,23.483871 L9.9599618,23.483871 L5.38254244,31.8064516 L34,31.8064516 L29.4225806,23.483871 L25.3686906,23.483871 Z" id="Combined-Shape" fill="#FFC800" fill-rule="nonzero"></path>
    </g>
</svg>