<?xml version="1.0" encoding="UTF-8"?>
<svg width="40px" height="40px" viewBox="0 0 40 40" version="1.1" xmlns="http://www.w3.org/2000/svg" xmlns:xlink="http://www.w3.org/1999/xlink">
    <!-- Generator: Sketch 52.5 (67469) - http://www.bohemiancoding.com/sketch -->
    <title>icon/contact/phone</title>
    <desc>Created with Sketch.</desc>
    <g id="icon/contact/phone" stroke="none" stroke-width="1" fill="none" fill-rule="evenodd">
        <path d="M33.4117496,27.3144303 L33.4120528,27.2898072 C33.4352629,26.3474768 32.748013,25.5364661 31.8244728,25.4059267 C30.3846375,25.2169483 28.9640992,24.8630439 27.5870946,24.3513968 C26.9093145,24.0954907 26.1447241,24.2583636 25.6331421,24.7643942 L23.8188563,26.5786799 C23.5005286,26.8970077 23.0087357,26.9633851 22.6174062,26.7408399 C18.8838299,24.617592 15.7943021,21.5280643 13.6710543,17.794488 C13.4485091,17.4031585 13.5148864,16.9113656 13.8332142,16.5930378 L15.6436674,14.7826054 C16.153505,14.2671959 16.3167381,13.5021385 16.0604149,12.8207711 C15.5511797,11.4542733 15.1973325,10.0339645 15.0072373,8.59675596 C14.8773024,7.67421784 14.0825892,6.99080904 13.140321,7.00014458 L8.8546067,7.00014458 C8.80259586,7.00014458 8.74705858,7.00272226 8.68995869,7.00754759 C7.66920153,7.09941573 6.91574605,8.00281545 7.00616652,9.00890821 C7.45808223,13.2676626 8.90746565,17.3605358 11.2416139,20.9640377 C13.3547543,24.2913734 16.1762263,27.1124948 19.5129606,29.2325321 C23.0925496,31.5536826 27.1661739,33.0029731 31.3922729,33.461792 C31.4506256,33.4673494 31.5019439,33.4696074 31.5624121,33.4687226 C32.5870522,33.4650101 33.4163992,32.6290514 33.4117496,31.6001446 L33.4117496,27.3144303 Z M35.4117393,31.5956156 C35.4213849,33.7253539 33.6994736,35.4609927 31.5819063,35.4685901 C31.4566166,35.4705788 31.3318858,35.4650906 31.1895504,35.4514477 C26.6392403,34.9575239 22.2668531,33.4019413 18.4326274,30.9156228 C14.8557801,28.6430812 11.8240347,25.6117125 9.55816134,22.0438093 C7.05809462,18.1842388 5.50240536,13.7911716 5.01577512,9.20406799 C4.82482584,7.08240932 6.3893612,5.2065177 8.51587791,5.01514485 C8.63190428,5.0053121 8.74324091,5.00014458 8.8546067,5.00014458 L13.1303613,5.00019418 C15.0668082,4.98090686 16.7176509,6.40053915 16.9888265,8.32613842 C17.1603446,9.62265305 17.4777466,10.896674 17.9334242,12.1194677 C18.4637299,13.5291168 18.1246275,15.1184561 17.0617135,16.1929656 L15.7960007,17.4586784 C17.5891759,20.3719544 20.0399432,22.8227212 22.9532196,24.6158958 L24.2227818,23.3463482 C25.293929,22.286781 26.8838971,21.9480864 28.2886113,22.4784722 C29.5204181,22.9361556 30.7946445,23.2536088 32.0945106,23.4242652 C34.028623,23.6975428 35.4532301,25.3741722 35.4117495,27.3258391 L35.4117393,31.5956156 Z" id="Path" fill="#FFC800" fill-rule="nonzero"></path>
    </g>
</svg>