<?xml version="1.0" encoding="UTF-8"?>
<svg width="174px" height="36px" viewBox="0 0 174 36" version="1.1" xmlns="http://www.w3.org/2000/svg" xmlns:xlink="http://www.w3.org/1999/xlink">
    <!-- Generator: Sketch 52.5 (67469) - http://www.bohemiancoding.com/sketch -->
    <title>logo/claim/en</title>
    <desc>Created with Sketch.</desc>
    <defs>
        <polygon id="path-1" points="0.273466667 0.681333333 9.44389091 0.681333333 9.44389091 10.9361212 0.273466667 10.9361212"></polygon>
        <polygon id="path-3" points="0 27.3189212 139.773455 27.3189212 139.773455 0.848739394 0 0.848739394"></polygon>
    </defs>
    <g id="logo/claim/en" stroke="none" stroke-width="1" fill="none" fill-rule="evenodd">
        <g id="Group-33" transform="translate(14.000000, 7.000000)">
            <g id="Group-3" transform="translate(10.181818, 0.167406)">
                <mask id="mask-2" fill="white">
                    <use xlink:href="#path-1"></use>
                </mask>
                <g id="Clip-2"></g>
                <path d="M0.273466667,5.81551515 C0.273466667,3.09018182 1.80243636,0.681333333 5.07673939,0.681333333 C7.04861818,0.681333333 8.6268,1.68084848 9.42946667,3.54072727 L7.75964848,4.20254545 C7.38716364,2.89248485 6.3588,2.38593939 5.06316364,2.38593939 C2.95722424,2.38593939 2.04849697,3.89963636 2.04849697,5.74509091 C2.04849697,7.72460606 2.95722424,9.23830303 5.09116364,9.23830303 C6.37237576,9.23830303 7.25310303,8.73175758 7.78764848,7.39284848 L9.44389091,8.06909091 C8.6548,9.9289697 7.07067879,10.9361212 5.09116364,10.9361212 C1.81516364,10.9361212 0.273466667,8.54848485 0.273466667,5.81551515" id="Fill-1" fill="#161616" mask="url(#mask-2)"></path>
            </g>
            <mask id="mask-4" fill="white">
                <use xlink:href="#path-3"></use>
            </mask>
            <g id="Clip-5"></g>
            <polygon id="Fill-4" fill="#161616" mask="url(#mask-4)" points="21.1264242 10.9626788 22.9150303 10.9626788 22.9150303 1.0108 21.1264242 1.0108"></polygon>
            <polygon id="Fill-6" fill="#161616" mask="url(#mask-4)" points="33.4430303 1.01054545 29.4780606 10.9624242 28.14 10.9624242 24.1538182 1.01054545 26.1333333 1.01054545 28.8162424 8.06060606 31.4855758 1.01054545"></polygon>
            <polygon id="Fill-7" fill="#161616" mask="url(#mask-4)" points="34.6809697 10.9626788 36.4695758 10.9626788 36.4695758 1.0108 34.6809697 1.0108"></polygon>
            <polygon id="Fill-8" fill="#161616" mask="url(#mask-4)" points="38.8272606 1.01054545 40.6158667 1.01054545 40.6158667 9.27224242 44.8701697 9.27224242 44.8701697 10.9624242 38.8272606 10.9624242"></polygon>
            <path d="M49.0886667,5.98292121 C49.0886667,3.25758788 50.6167879,0.848739394 53.8919394,0.848739394 C55.8638182,0.848739394 57.442,1.84825455 58.2446667,3.70813333 L56.575697,4.36995152 C56.2023636,3.05989091 55.174,2.55334545 53.8783636,2.55334545 C51.7715758,2.55334545 50.863697,4.06704242 50.863697,5.91249697 C50.863697,7.89201212 51.7715758,9.40570909 53.9063636,9.40570909 C55.1875758,9.40570909 56.0691515,8.89916364 56.603697,7.56025455 L58.2590909,8.23649697 C57.47,10.0963758 55.8850303,11.1035273 53.9063636,11.1035273 C50.6312121,11.1035273 49.0886667,8.71589091 49.0886667,5.98292121" id="Fill-9" fill="#161616" mask="url(#mask-4)"></path>
            <path d="M66.826497,5.98292121 C66.826497,4.10946667 66.0450424,2.45407273 63.9102545,2.45407273 C61.7763152,2.45407273 60.9948606,4.10946667 60.9948606,5.98292121 C60.9948606,7.86316364 61.7763152,9.51855758 63.9102545,9.51855758 C66.0450424,9.51855758 66.826497,7.86316364 66.826497,5.98292121 M59.1069818,5.98292121 C59.1069818,3.27116364 60.6215273,0.862315152 63.9102545,0.862315152 C67.1998303,0.862315152 68.7143758,3.27116364 68.7143758,5.98292121 C68.7143758,8.69467879 67.1998303,11.1035273 63.9102545,11.1035273 C60.6215273,11.1035273 59.1069818,8.69467879 59.1069818,5.98292121" id="Fill-10" fill="#161616" mask="url(#mask-4)"></path>
            <path d="M70.2941697,7.08162424 L70.2941697,1.01071515 L72.0759879,1.01071515 L72.0759879,6.87713939 C72.0759879,8.48332121 72.4985333,9.37762424 74.0970788,9.37762424 C75.7032606,9.37762424 76.1190182,8.48332121 76.1190182,6.87713939 L76.1190182,1.01071515 L77.9076242,1.01071515 L77.9076242,7.0112 C77.9076242,9.51847273 76.7672606,11.1034424 74.0970788,11.1034424 C71.4277455,11.1034424 70.2941697,9.51847273 70.2941697,7.08162424" id="Fill-11" fill="#161616" mask="url(#mask-4)"></path>
            <path d="M83.5128,5.25042424 C84.463103,5.208 85.026497,4.7150303 85.026497,3.96836364 C85.026497,3.14448485 84.3858909,2.60909091 83.3643152,2.60909091 L81.9354667,2.60909091 L81.9354667,5.25042424 L83.5128,5.25042424 Z M80.1324364,1.01054545 L83.3515879,1.01054545 C85.2106182,1.01054545 86.7947394,2.07369697 86.7947394,3.94036364 C86.7947394,5.19442424 85.9776485,6.14472727 84.8508606,6.53248485 L87.6186182,10.9624242 L85.5695273,10.9624242 L83.1182545,6.70812121 L82.5404364,6.70812121 L81.9210424,6.70812121 L81.9210424,10.9624242 L80.1324364,10.9624242 L80.1324364,1.01054545 Z" id="Fill-12" fill="#161616" mask="url(#mask-4)"></path>
            <path d="M94.3019636,7.2717697 L92.963903,3.63770909 L91.6190545,7.2717697 L94.3019636,7.2717697 Z M92.2876606,1.0108 L93.6257212,1.0108 L97.5915394,10.9626788 L95.6612364,10.9626788 L94.8653576,8.79989091 L91.0556606,8.79989091 L90.2521455,10.9626788 L88.3014788,10.9626788 L92.2876606,1.0108 Z" id="Fill-13" fill="#161616" mask="url(#mask-4)"></path>
            <path d="M107.122061,5.58150303 L107.122061,10.9625939 L105.705939,10.9625939 L105.550667,9.56089697 C105.016121,10.4976242 103.930909,11.1034424 102.607273,11.1034424 C99.3312727,11.1034424 97.7895758,8.71580606 97.7895758,5.98283636 C97.7895758,3.25750303 99.3032727,0.848654545 102.592848,0.848654545 C104.551152,0.848654545 106.128485,1.84901818 106.931152,3.70804848 L105.34703,4.36986667 C104.888848,3.0182303 103.846909,2.41241212 102.579273,2.41241212 C100.473333,2.41241212 99.5646061,4.06695758 99.5646061,5.91241212 C99.5646061,7.89192727 100.473333,9.50489697 102.607273,9.50489697 C104.164242,9.50489697 105.26303,8.64538182 105.31903,7.02562424 L103.128242,7.02562424 L103.128242,5.58150303 L107.122061,5.58150303 Z" id="Fill-14" fill="#161616" mask="url(#mask-4)"></path>
            <polygon id="Fill-15" fill="#161616" mask="url(#mask-4)" points="109.22503 1.01054545 115.845758 1.01054545 115.845758 2.65151515 111.013636 2.65151515 111.013636 5.16557576 115.514 5.16557576 115.514 6.80739394 111.013636 6.80739394 111.013636 9.27224242 115.845758 9.27224242 115.845758 10.9624242 109.22503 10.9624242"></polygon>
            <path d="M124.375152,4.81379394 C125.121818,4.36324848 125.685212,3.89149091 125.685212,3.24324848 C125.685212,2.71464242 125.326303,2.23609697 124.650061,2.23609697 C124.058667,2.23609697 123.536848,2.59500606 123.536848,3.25767273 C123.536848,3.77864242 124.065455,4.45488485 124.375152,4.81379394 Z M126.009333,8.8424 L124.128242,6.69403636 C123.191515,7.27185455 122.410061,7.84203636 122.410061,8.66676364 C122.410061,9.3353697 123.050667,9.66627879 123.973818,9.66627879 C124.790909,9.66627879 125.480727,9.34979394 126.009333,8.8424 Z M128.325697,11.4973091 L127.016485,9.99718788 C126.206182,10.7014303 125.177818,11.1239758 124.015394,11.1239758 C122.199636,11.1239758 120.754667,10.244097 120.754667,8.63791515 C120.754667,7.13100606 121.882303,6.27149091 123.057455,5.57403636 C122.622182,5.13791515 121.882303,4.29961212 121.882303,3.22882424 C121.882303,1.77112727 123.276364,0.8904 124.635636,0.8904 C126.079758,0.8904 127.27697,1.90518788 127.27697,3.21524848 C127.27697,4.41924848 126.453091,5.20833939 125.480727,5.8633697 L126.889212,7.44070303 C127.044485,7.00458182 127.129333,6.53197576 127.129333,6.06021818 L128.805091,6.22906667 C128.755879,7.1454303 128.494545,8.01173333 128.059273,8.75076364 L129.537333,10.4129455 L128.325697,11.4973091 Z" id="Fill-16" fill="#161616" mask="url(#mask-4)"></path>
            <path d="M6.00073939,23.487503 L4.66267879,19.8534424 L3.31698182,23.487503 L6.00073939,23.487503 Z M3.98643636,17.2265333 L5.32449697,17.2265333 L9.28946667,27.1784121 L7.36086061,27.1784121 L6.56413333,25.0156242 L2.75358788,25.0156242 L1.9517697,27.1784121 L0.000254545455,27.1784121 L3.98643636,17.2265333 Z" id="Fill-17" fill="#161616" mask="url(#mask-4)"></path>
            <polygon id="Fill-18" fill="#161616" mask="url(#mask-4)" points="18.2043273 17.2261939 18.2043273 27.1780727 16.4157212 27.1780727 12.2462667 20.1840121 12.2462667 27.1780727 10.5272364 27.1780727 10.5272364 17.2261939 12.3022667 17.2261939 16.4861455 24.1846182 16.4861455 17.2261939"></polygon>
            <polygon id="Fill-19" fill="#161616" mask="url(#mask-4)" points="22.5950667 18.8249939 19.4751879 18.8249939 19.4751879 17.2264485 27.4967636 17.2264485 27.4967636 18.8249939 24.3845212 18.8249939 24.3845212 27.1783273 22.5950667 27.1783273"></polygon>
            <polygon id="Fill-20" fill="#161616" mask="url(#mask-4)" points="28.7653333 27.1780727 30.5539394 27.1780727 30.5539394 17.2261939 28.7653333 17.2261939"></polygon>
            <polygon id="Fill-21" fill="#161616" mask="url(#mask-4)" points="32.6853333 23.6000121 36.7987879 23.6000121 36.7987879 22.3043758 32.6853333 22.3043758"></polygon>
            <path d="M42.3098667,21.4661576 C43.2601697,21.4237333 43.8235636,20.9307636 43.8235636,20.184097 C43.8235636,19.3602182 43.1829576,18.8248242 42.1613818,18.8248242 L40.7325333,18.8248242 L40.7325333,21.4661576 L42.3098667,21.4661576 Z M38.929503,17.2262788 L42.1486545,17.2262788 C44.0076848,17.2262788 45.5918061,18.2894303 45.5918061,20.156097 C45.5918061,21.4101576 44.7747152,22.3604606 43.6479273,22.7482182 L46.4156848,27.1781576 L44.3665939,27.1781576 L41.9153212,22.9238545 L41.337503,22.9238545 L40.7181091,22.9238545 L40.7181091,27.1781576 L38.929503,27.1781576 L38.929503,17.2262788 Z" id="Fill-22" fill="#161616" mask="url(#mask-4)"></path>
            <path d="M53.0991152,23.487503 L51.7610545,19.8534424 L50.4162061,23.487503 L53.0991152,23.487503 Z M51.0848121,17.2265333 L52.4228727,17.2265333 L56.3886909,27.1784121 L54.4583879,27.1784121 L53.6625091,25.0156242 L49.8528121,25.0156242 L49.049297,27.1784121 L47.0986303,27.1784121 L51.0848121,17.2265333 Z" id="Fill-23" fill="#161616" mask="url(#mask-4)"></path>
            <path d="M56.5866424,22.1985697 C56.5866424,19.4732364 58.1156121,17.0643879 61.3899152,17.0643879 C63.3617939,17.0643879 64.9399758,18.063903 65.7426424,19.9237818 L64.0728242,20.5856 C63.7003394,19.2755394 62.6719758,18.7689939 61.3763394,18.7689939 C59.2704,18.7689939 58.3616727,20.2826909 58.3616727,22.1281455 C58.3616727,24.1076606 59.2704,25.6213576 61.4043394,25.6213576 C62.6855515,25.6213576 63.5662788,25.1148121 64.1008242,23.775903 L65.7570667,24.4521455 C64.9679758,26.3120242 63.3838545,27.3191758 61.4043394,27.3191758 C58.1283394,27.3191758 56.5866424,24.9315394 56.5866424,22.1985697" id="Fill-24" fill="#161616" mask="url(#mask-4)"></path>
            <polygon id="Fill-25" fill="#161616" mask="url(#mask-4)" points="67.2585455 27.1780727 69.0471515 27.1780727 69.0471515 17.2261939 67.2585455 17.2261939"></polygon>
            <path d="M70.5393818,24.3678909 L72.3144121,23.9173455 C72.4416848,25.1569818 73.3215636,25.7059515 74.3779273,25.7059515 C75.4410788,25.7059515 76.0197455,25.1425576 76.0197455,24.4383152 C76.0197455,22.3748 71.2020485,23.0646182 71.2020485,19.825103 C71.2020485,18.064497 72.6317455,17.0785576 74.307503,17.0785576 C75.5335636,17.0785576 76.6527152,17.6139515 77.3365939,18.8247394 L75.850897,19.7334667 C75.5055636,19.0572242 74.9133212,18.6703152 74.2447152,18.6703152 C73.5404727,18.6703152 72.9906545,19.0996485 72.9906545,19.7334667 C72.9906545,21.6069212 77.807503,20.973103 77.807503,24.2762545 C77.807503,26.156497 76.2513818,27.2909212 74.3499273,27.2909212 C72.5893212,27.2909212 70.8567152,26.3261939 70.5393818,24.3678909" id="Fill-26" fill="#161616" mask="url(#mask-4)"></path>
            <polygon id="Fill-27" fill="#161616" mask="url(#mask-4)" points="89.5234667 17.2261939 89.5234667 27.1780727 87.8052848 27.1780727 87.8052848 19.7478909 85.3395879 26.3117697 83.6069818 26.3117697 81.1421333 19.7478909 81.1421333 27.1780727 79.4239515 27.1780727 79.4239515 17.2261939 81.8328 17.2261939 84.4732848 24.3042545 87.1146182 17.2261939"></polygon>
            <polygon id="Fill-28" fill="#161616" mask="url(#mask-4)" points="91.6524848 23.6000121 95.7659394 23.6000121 95.7659394 22.3043758 91.6524848 22.3043758"></polygon>
            <polygon id="Fill-29" fill="#161616" mask="url(#mask-4)" points="96.3800727 17.2261939 98.239103 17.2261939 100.358618 24.5511636 102.562982 17.8040121 103.951103 17.8040121 106.155467 24.5511636 108.27583 17.2261939 110.134861 17.2261939 107.148194 27.1780727 105.423224 27.1780727 103.254497 20.6277697 101.091709 27.1780727 99.3667394 27.1780727"></polygon>
            <path d="M118.261733,22.1985697 C118.261733,20.3251152 117.47943,18.6697212 115.345491,18.6697212 C113.2124,18.6697212 112.430097,20.3251152 112.430097,22.1985697 C112.430097,24.0788121 113.2124,25.7342061 115.345491,25.7342061 C117.47943,25.7342061 118.261733,24.0788121 118.261733,22.1985697 M110.542218,22.1985697 C110.542218,19.4868121 112.057612,17.0779636 115.345491,17.0779636 C118.634218,17.0779636 120.149612,19.4868121 120.149612,22.1985697 C120.149612,24.9103273 118.634218,27.3191758 115.345491,27.3191758 C112.057612,27.3191758 110.542218,24.9103273 110.542218,22.1985697" id="Fill-30" fill="#161616" mask="url(#mask-4)"></path>
            <path d="M125.286594,21.4661576 C126.237745,21.4237333 126.801139,20.9307636 126.801139,20.184097 C126.801139,19.3602182 126.159685,18.8248242 125.138958,18.8248242 L123.709261,18.8248242 L123.709261,21.4661576 L125.286594,21.4661576 Z M121.90623,17.2262788 L125.124533,17.2262788 C126.983564,17.2262788 128.568533,18.2894303 128.568533,20.156097 C128.568533,21.4101576 127.751442,22.3604606 126.624655,22.7482182 L129.393261,27.1781576 L127.343321,27.1781576 L124.892048,22.9238545 L124.31423,22.9238545 L123.694836,22.9238545 L123.694836,27.1781576 L121.90623,27.1781576 L121.90623,17.2262788 Z" id="Fill-31" fill="#161616" mask="url(#mask-4)"></path>
            <polygon id="Fill-32" fill="#161616" mask="url(#mask-4)" points="130.667515 17.2261939 132.456121 17.2261939 132.456121 22.4172242 137.301818 17.2261939 139.697091 17.2261939 135.716848 21.3040121 139.773455 27.1780727 137.547879 27.1780727 134.477212 22.5012242 132.456121 24.5935879 132.456121 27.1780727 130.667515 27.1780727"></polygon>
        </g>
    </g>
</svg>