<?xml version="1.0" encoding="UTF-8"?>
<svg width="174px" height="36px" viewBox="0 0 174 36" version="1.1" xmlns="http://www.w3.org/2000/svg" xmlns:xlink="http://www.w3.org/1999/xlink">
    <!-- Generator: Sketch 52.5 (67469) - http://www.bohemiancoding.com/sketch -->
    <title>logo/claim/de</title>
    <desc>Created with Sketch.</desc>
    <g id="logo/claim/de" stroke="none" stroke-width="1" fill="none" fill-rule="evenodd">
        <g id="Group" transform="translate(1.000000, 7.000000)" fill="#050505">
            <polygon id="Fill-6" points="36.142395 1.91456129 30.4768623 9.14446452 36.142395 9.14446452 36.142395 10.8001742 27.923591 10.8001742 27.923591 9.52769032 33.6099879 2.26904516 28.2478573 2.26904516 28.2478573 0.584593548 36.142395 0.584593548"></polygon>
            <polygon id="Fill-8" points="37.9000402 10.8 39.7326231 10.8 39.7326231 0.584419355 37.9000402 0.584419355"></polygon>
            <polygon id="Fill-10" points="50.5197382 0.584332258 46.4564116 10.7999129 45.0854518 10.7999129 41.0012608 0.584332258 43.0285774 0.584332258 45.7783211 7.82120323 48.5124166 0.584332258"></polygon>
            <polygon id="Fill-11" points="51.7869849 10.8 53.6195678 10.8 53.6195678 0.584419355 51.7869849 0.584419355"></polygon>
            <polygon id="Fill-12" points="56.0354824 0.584332258 57.8680653 0.584332258 57.8680653 9.06494516 62.2269698 9.06494516 62.2269698 10.7999129 56.0354824 10.7999129"></polygon>
            <path d="M62.7466653,5.68846452 C62.7466653,2.89091613 64.3123588,0.41823871 67.6680372,0.41823871 C69.688399,0.41823871 71.3053839,1.44423871 72.1277859,3.3534 L70.4177809,4.03275484 C70.0352683,2.68798065 68.9816201,2.1680129 67.6541276,2.1680129 C65.4955397,2.1680129 64.5653387,3.72181935 64.5653387,5.61617419 C64.5653387,7.64814194 65.4955397,9.20194839 67.6828161,9.20194839 C68.9955296,9.20194839 69.8987809,8.68198065 70.4464693,7.30759355 L72.1425648,8.00175484 C71.3340724,9.91091613 69.7101327,10.9447548 67.6828161,10.9447548 C64.3271377,10.9447548 62.7466653,8.49385161 62.7466653,5.68846452" id="Fill-13"></path>
            <path d="M80.9197503,5.68846452 C80.9197503,3.76536774 80.1182126,2.06610968 77.9318055,2.06610968 C75.7462678,2.06610968 74.9447302,3.76536774 74.9447302,5.68846452 C74.9447302,7.61852903 75.7462678,9.3177871 77.9318055,9.3177871 C80.1182126,9.3177871 80.9197503,7.61852903 80.9197503,5.68846452 M73.0104337,5.68846452 C73.0104337,2.90485161 74.5630869,0.432174194 77.9318055,0.432174194 C81.3013935,0.432174194 82.8540467,2.90485161 82.8540467,5.68846452 C82.8540467,8.47207742 81.3013935,10.9447548 77.9318055,10.9447548 C74.5630869,10.9447548 73.0104337,8.47207742 73.0104337,5.68846452" id="Fill-14"></path>
            <path d="M84.4734658,6.81636774 L84.4734658,0.584593548 L86.299094,0.584593548 L86.299094,6.60646452 C86.299094,8.25520645 86.7320286,9.17320645 88.3698779,9.17320645 C90.0155513,9.17320645 90.4415312,8.25520645 90.4415312,6.60646452 L90.4415312,0.584593548 L92.2741141,0.584593548 L92.2741141,6.74407742 C92.2741141,9.3177871 91.1057121,10.9447548 88.3698779,10.9447548 C85.6349131,10.9447548 84.4734658,9.3177871 84.4734658,6.81636774" id="Fill-15"></path>
            <path d="M98.0171055,4.93664516 C98.9907739,4.89309677 99.5680201,4.38706452 99.5680201,3.6206129 C99.5680201,2.77490323 98.9116633,2.22532258 97.8649698,2.22532258 L96.4009899,2.22532258 L96.4009899,4.93664516 L98.0171055,4.93664516 Z M94.5536281,0.584419355 L97.8519296,0.584419355 C99.7566683,0.584419355 101.379739,1.67574194 101.379739,3.59187097 C101.379739,4.87916129 100.542558,5.85464516 99.3880653,6.25267742 L102.223874,10.8 L100.124402,10.8 L97.6128593,6.43296774 L97.0208342,6.43296774 L96.3862111,6.43296774 L96.3862111,10.8 L94.5536281,10.8 L94.5536281,0.584419355 Z" id="Fill-16"></path>
            <path d="M109.070762,7.01155161 L107.699803,3.28119677 L106.321019,7.01155161 L109.070762,7.01155161 Z M107.006933,0.584680645 L108.377893,0.584680645 L112.44035,10.8002613 L110.464325,10.8002613 L109.648009,8.58016452 L105.743772,8.58016452 L104.92224,10.8002613 L102.922742,10.8002613 L107.006933,0.584680645 Z" id="Fill-17"></path>
            <path d="M122.206852,5.27640968 L122.206852,10.8000871 L120.756782,10.8000871 L120.597691,9.36124839 C120.050003,10.3227968 118.938109,10.9446677 117.581928,10.9446677 C114.226249,10.9446677 112.645777,8.49376452 112.645777,5.68837742 C112.645777,2.89082903 114.197561,0.418151613 117.567149,0.418151613 C119.573601,0.418151613 121.189717,1.44502258 122.012119,3.3533129 L120.388179,4.03266774 C119.919601,2.64521613 118.852043,2.02334516 117.55237,2.02334516 C115.394651,2.02334516 114.46445,3.72173226 114.46445,5.6160871 C114.46445,7.64805484 115.394651,9.30376452 117.581928,9.30376452 C119.17631,9.30376452 120.302114,8.42147419 120.35949,6.75879677 L118.115707,6.75879677 L118.115707,5.27640968 L122.206852,5.27640968 Z" id="Fill-18"></path>
            <polygon id="Fill-19" points="124.361615 0.584332258 131.145128 0.584332258 131.145128 2.26878387 126.194198 2.26878387 126.194198 4.84946129 130.805213 4.84946129 130.805213 6.53478387 126.194198 6.53478387 126.194198 9.06494516 131.145128 9.06494516 131.145128 10.7999129 124.361615 10.7999129"></polygon>
            <path d="M139.884149,4.48835806 C140.649174,4.02587419 141.22642,3.54161613 141.22642,2.87619677 C141.22642,2.33358387 140.858686,1.84235806 140.165817,1.84235806 C139.559882,1.84235806 139.025234,2.21077742 139.025234,2.89100323 C139.025234,3.42577742 139.566837,4.11993871 139.884149,4.48835806 Z M141.558511,8.6237129 L139.631169,6.41842258 C138.67141,7.01155161 137.870742,7.59684194 137.870742,8.44342258 C137.870742,9.12974516 138.527098,9.46942258 139.472948,9.46942258 C140.310129,9.46942258 141.016908,9.14455161 141.558511,8.6237129 Z M143.931827,11.348971 L142.590425,9.8091 C141.760199,10.5320032 140.706551,10.9657452 139.515546,10.9657452 C137.655144,10.9657452 136.174646,10.0625516 136.174646,8.41380968 C136.174646,6.86697097 137.330008,5.98468065 138.534053,5.26874516 C138.088078,4.82106774 137.330008,3.96055161 137.330008,2.86139032 C137.330008,1.36506774 138.758345,0.461003226 140.151038,0.461003226 C141.630666,0.461003226 142.857315,1.50268065 142.857315,2.84745484 C142.857315,4.08335806 142.013179,4.89335806 141.016908,5.56574516 L142.460023,7.18487419 C142.619114,6.73719677 142.706048,6.25206774 142.706048,5.76780968 L144.423008,5.94113226 C144.372586,6.88177742 144.104827,7.77103548 143.658852,8.52964839 L145.173254,10.2358742 L143.931827,11.348971 Z" id="Fill-20"></path>
            <path d="M6.31128342,23.6568774 L4.94032362,19.9265226 L3.5615397,23.6568774 L6.31128342,23.6568774 Z M4.24745427,17.2300065 L5.61841407,17.2300065 L9.68087136,27.4455871 L7.70484623,27.4455871 L6.88852965,25.2254903 L2.98429347,25.2254903 L2.1627608,27.4455871 L0.163263317,27.4455871 L4.24745427,17.2300065 Z" id="Fill-21"></path>
            <polygon id="Fill-22" points="18.8149236 17.2296581 18.8149236 27.4452387 16.9823407 27.4452387 12.7103709 20.2658516 12.7103709 27.4452387 10.9490744 27.4452387 10.9490744 17.2296581 12.7677477 17.2296581 17.0544965 24.3724645 17.0544965 17.2296581"></polygon>
            <polygon id="Fill-23" points="23.3136191 18.8708226 20.1170312 18.8708226 20.1170312 17.2299194 28.3358352 17.2299194 28.3358352 18.8708226 25.1470714 18.8708226 25.1470714 27.4455 23.3136191 27.4455"></polygon>
            <polygon id="Fill-24" points="29.6360302 27.4450645 31.4686131 27.4450645 31.4686131 17.2294839 29.6360302 17.2294839"></polygon>
            <polygon id="Fill-25" points="33.6524121 23.7721935 37.867005 23.7721935 37.867005 22.4422258 33.6524121 22.4422258"></polygon>
            <path d="M43.5131513,21.581971 C44.4868196,21.5384226 45.0640658,21.0323903 45.0640658,20.2659387 C45.0640658,19.420229 44.407709,18.8706484 43.3610156,18.8706484 L41.8970357,18.8706484 L41.8970357,21.581971 L43.5131513,21.581971 Z M40.0496739,17.2297452 L43.3479754,17.2297452 C45.2527141,17.2297452 46.8757844,18.3210677 46.8757844,20.2371968 C46.8757844,21.5244871 46.0386035,22.499971 44.8841111,22.8980032 L47.7199201,27.4453258 L45.6204477,27.4453258 L43.108905,23.0782935 L42.5168799,23.0782935 L41.8822568,23.0782935 L41.8822568,27.4453258 L40.0496739,27.4453258 L40.0496739,17.2297452 Z" id="Fill-26"></path>
            <path d="M54.5676774,23.6568774 L53.1967176,19.9265226 L51.818803,23.6568774 L54.5676774,23.6568774 Z M52.5038482,17.2300065 L53.874808,17.2300065 L57.9381347,27.4455871 L55.9603709,27.4455871 L55.1449236,25.2254903 L51.2415568,25.2254903 L50.4182854,27.4455871 L48.4196573,27.4455871 L52.5038482,17.2300065 Z" id="Fill-27"></path>
            <path d="M58.2453618,24.5605935 L60.0640352,24.0981097 C60.1926985,25.3705935 61.0950804,25.9341097 62.1774171,25.9341097 C63.2675779,25.9341097 63.8587337,25.3557871 63.8587337,24.6328839 C63.8587337,22.5146903 58.9225829,23.2227871 58.9225829,19.8974323 C58.9225829,18.0901742 60.3883015,17.0781097 62.1052613,17.0781097 C63.3614673,17.0781097 64.509005,17.6276903 65.2088291,18.8705613 L63.6857337,19.8033677 C63.3327789,19.1092065 62.7259749,18.7120452 62.0400603,18.7120452 C61.3185025,18.7120452 60.7569045,19.1527548 60.7569045,19.8033677 C60.7569045,21.7264645 65.6921859,21.0758516 65.6921859,24.466529 C65.6921859,26.3965935 64.0969347,27.5610774 62.1487286,27.5610774 C60.3448342,27.5610774 58.5696281,26.5707871 58.2453618,24.5605935" id="Fill-28"></path>
            <path d="M66.6416864,24.5605935 L68.4603598,24.0981097 C68.5890231,25.3705935 69.491405,25.9341097 70.5737417,25.9341097 C71.6639025,25.9341097 72.2550583,25.3557871 72.2550583,24.6328839 C72.2550583,22.5146903 67.3189075,23.2227871 67.3189075,19.8974323 C67.3189075,18.0901742 68.7846261,17.0781097 70.5015859,17.0781097 C71.757792,17.0781097 72.9053296,17.6276903 73.6051538,18.8705613 L72.0820583,19.8033677 C71.7291035,19.1092065 71.1222995,18.7120452 70.4363849,18.7120452 C69.7148271,18.7120452 69.1532291,19.1527548 69.1532291,19.8033677 C69.1532291,21.7264645 74.0885106,21.0758516 74.0885106,24.466529 C74.0885106,26.3965935 72.4932593,27.5610774 70.5450533,27.5610774 C68.7411588,27.5610774 66.9659528,26.5707871 66.6416864,24.5605935" id="Fill-29"></path>
            <polygon id="Fill-30" points="75.7661759 27.4450645 77.5987588 27.4450645 77.5987588 17.2294839 75.7661759 17.2294839"></polygon>
            <path d="M79.1283744,24.5605935 L80.9470477,24.0981097 C81.0757111,25.3705935 81.978093,25.9341097 83.0604296,25.9341097 C84.1505905,25.9341097 84.7417462,25.3557871 84.7417462,24.6328839 C84.7417462,22.5146903 79.8055955,23.2227871 79.8055955,19.8974323 C79.8055955,18.0901742 81.2713141,17.0781097 82.9882739,17.0781097 C84.2444799,17.0781097 85.3920176,17.6276903 86.0918417,18.8705613 L84.5687462,19.8033677 C84.2157915,19.1092065 83.6089874,18.7120452 82.9230729,18.7120452 C82.2015151,18.7120452 81.6399171,19.1527548 81.6399171,19.8033677 C81.6399171,21.7264645 86.5751985,21.0758516 86.5751985,24.466529 C86.5751985,26.3965935 84.9799472,27.5610774 83.0317412,27.5610774 C81.2278467,27.5610774 79.4526407,26.5707871 79.1283744,24.5605935" id="Fill-31"></path>
            <polygon id="Fill-32" points="98.5783558 17.2296581 98.5783558 27.4452387 96.8179286 27.4452387 96.8179286 19.8181742 94.291607 26.5559806 92.516401 26.5559806 89.9909487 19.8181742 89.9909487 27.4452387 88.2305216 27.4452387 88.2305216 17.2296581 90.698597 17.2296581 93.4048734 24.495271 96.1102804 17.2296581"></polygon>
            <path d="M100.857783,23.4616935 L100.857783,17.2299194 L102.68428,17.2299194 L102.68428,23.2517903 C102.68428,24.9005323 103.117215,25.8185323 104.754195,25.8185323 C106.399868,25.8185323 106.824979,24.9005323 106.824979,23.2517903 L106.824979,17.2299194 L108.659301,17.2299194 L108.659301,23.3894032 C108.659301,25.9631129 107.48916,27.5900806 104.754195,27.5900806 C102.020099,27.5900806 100.857783,25.9631129 100.857783,23.4616935" id="Fill-33"></path>
            <path d="M109.932459,24.5605935 L111.751132,24.0981097 C111.881534,25.3705935 112.783047,25.9341097 113.865383,25.9341097 C114.954675,25.9341097 115.547569,25.3557871 115.547569,24.6328839 C115.547569,22.5146903 110.611419,23.2227871 110.611419,19.8974323 C110.611419,18.0901742 112.076268,17.0781097 113.793228,17.0781097 C115.049434,17.0781097 116.196102,17.6276903 116.896795,18.8705613 L115.374569,19.8033677 C115.020745,19.1092065 114.413941,18.7120452 113.728896,18.7120452 C113.007338,18.7120452 112.444002,19.1527548 112.444002,19.8033677 C112.444002,21.7264645 117.379283,21.0758516 117.379283,24.466529 C117.379283,26.3965935 115.784901,27.5610774 113.836695,27.5610774 C112.032801,27.5610774 110.257594,26.5707871 109.932459,24.5605935" id="Fill-34"></path>
            <polygon id="Fill-35" points="118.878819 23.7721935 123.093412 23.7721935 123.093412 22.4422258 118.878819 22.4422258"></polygon>
            <path d="M129.88501,23.6568774 L128.51405,19.9265226 L127.136135,23.6568774 L129.88501,23.6568774 Z M127.82118,17.2300065 L129.19214,17.2300065 L133.255467,27.4455871 L131.277703,27.4455871 L130.462256,25.2254903 L126.558889,25.2254903 L125.735618,27.4455871 L123.736989,27.4455871 L127.82118,17.2300065 Z" id="Fill-36"></path>
            <path d="M137.986713,21.581971 C138.960381,21.5384226 139.537627,21.0323903 139.537627,20.2659387 C139.537627,19.420229 138.88127,18.8706484 137.834577,18.8706484 L136.370597,18.8706484 L136.370597,21.581971 L137.986713,21.581971 Z M134.523235,17.2297452 L137.821537,17.2297452 C139.726275,17.2297452 141.349346,18.3210677 141.349346,20.2371968 C141.349346,21.5244871 140.512165,22.499971 139.357672,22.8980032 L142.193481,27.4453258 L140.094009,27.4453258 L137.582466,23.0782935 L136.990441,23.0782935 L136.355818,23.0782935 L136.355818,27.4453258 L134.523235,27.4453258 L134.523235,17.2297452 Z" id="Fill-37"></path>
            <path d="M147.506233,25.6956387 C148.451213,25.6956387 148.999771,25.2401226 148.999771,24.2785742 C148.999771,23.5487032 148.393836,22.9268323 147.433208,22.9268323 L145.333736,22.9268323 L145.333736,25.6956387 L147.506233,25.6956387 Z M147.209786,21.3434129 C147.92352,21.3434129 148.616389,21.0899613 148.616389,20.0857355 C148.616389,19.2905419 147.939168,18.8855419 147.065474,18.8855419 L145.333736,18.8855419 L145.333736,21.3434129 L147.209786,21.3434129 Z M143.501153,17.2298323 L147.036786,17.2298323 C148.587701,17.2298323 150.298575,17.937929 150.298575,19.9838323 C150.298575,20.9166387 149.742193,21.6682839 149.164947,21.9792194 C150.096017,22.3485097 150.803665,23.4616065 150.803665,24.4806387 C150.803665,26.3828323 149.209283,27.4454129 147.477545,27.4454129 L143.501153,27.4454129 L143.501153,17.2298323 Z" id="Fill-38"></path>
            <polygon id="Fill-39" points="152.596693 17.2296581 159.380206 17.2296581 159.380206 18.9141097 154.429276 18.9141097 154.429276 21.4947871 159.040291 21.4947871 159.040291 23.1801097 154.429276 23.1801097 154.429276 25.710271 159.380206 25.710271 159.380206 27.4452387 152.596693 27.4452387"></polygon>
            <polygon id="Fill-40" points="161.491588 27.4450645 163.324171 27.4450645 163.324171 17.2294839 161.491588 17.2294839"></polygon>
            <polygon id="Fill-41" points="167.815303 18.8708226 164.618715 18.8708226 164.618715 17.2299194 172.837519 17.2299194 172.837519 18.8708226 169.648755 18.8708226 169.648755 27.4455 167.815303 27.4455"></polygon>
        </g>
    </g>
</svg>