<?xml version="1.0" encoding="UTF-8"?>
<svg width="174px" height="100px" viewBox="0 0 174 100" version="1.1" xmlns="http://www.w3.org/2000/svg" xmlns:xlink="http://www.w3.org/1999/xlink">
    <!-- Generator: Sketch 52.5 (67469) - http://www.bohemiancoding.com/sketch -->
    <title>logo/collapsed</title>
    <desc>Created with Sketch.</desc>
    <g id="logo/collapsed" stroke="none" stroke-width="1" fill="none" fill-rule="evenodd">
        <path d="M135.312851,100 L38.6862662,100 C37.7548469,100 37,99.2451531 37,98.3137338 L37,1.68714906 C37,0.755729774 37.7548469,0 38.6862662,0 L135.312851,0 C136.24427,0 137,0.755729774 137,1.68714906 L137,98.3137338 C137,99.2451531 136.24427,100 135.312851,100" id="Fill-1-Copy" fill="#FFC800"></path>
        <path d="M129.123781,88.0781361 C129.052494,88.0781361 128.984685,88.0702973 128.916007,88.0598457 C128.1136,88.0563619 127.357268,87.7732973 126.764374,87.2620393 C123.093123,84.083878 111.009203,73.0922651 109.666062,65.0636844 C108.850615,60.189749 113.863268,58.3711683 115.75062,57.6857167 L115.884499,57.6378135 C116.190509,57.5272006 116.473917,57.4261683 116.707771,57.3190393 C117.238072,57.0751683 117.771851,56.8574264 118.301283,56.6440393 C120.776313,55.6424264 121.906464,55.1851683 122.658449,51.9852328 C122.826233,51.2666844 122.243771,47.9735554 120.206022,45.6515554 C117.858786,42.9750715 116.361771,42.4551038 113.505967,41.9063941 C108.653273,40.9744586 106.682464,41.6808135 105.081128,44.934749 C103.532821,48.0832973 102.730414,51.6507812 101.880193,55.4272973 C101.318595,57.9261038 100.740479,60.5006844 99.9180773,63.0047167 C98.0376803,68.7278457 93.2623587,79.6088457 92.7242331,80.8308135 C92.460821,81.4282973 88.6739467,87.3151683 87.9715145,87.6234909 C87.6255145,87.7698135 87.2647356,87.6374264 87.0221879,87.5233296 C86.3267105,87.1958457 84.891419,86.1141038 84.5645446,84.9818457 C82.2260019,76.8827167 74.0237155,60.3735231 69.123208,50.5098135 L68.6372431,49.5291038 C66.5629818,54.4161038 64.128811,60.2951361 63.2003487,63.0979102 L62.5587708,65.0567167 C61.0208964,69.7695231 59.4317306,74.6417167 56.8984542,78.7805554 C55.8256803,80.5433941 54.6946602,81.9970393 53.4401929,83.2251038 C52.4743487,84.1692328 51.5154592,85.0863619 50.3957406,85.9346844 C47.653821,88.0197812 43.4322733,87.9509748 39.6914743,87.7210393 C32.9801175,87.3142973 26.4426301,85.649007 20.1190019,84.0394586 C15.1559014,82.7748135 10.5353235,81.8446199 6.27726324,81.0250393 C5.28620796,80.8351683 2.97461499,79.8292006 2.27652957,78.6655877 C0.859494392,76.3052651 5.30446424,72.0453619 6.21032354,71.2153296 C13.5910773,64.4496522 20.5362884,59.7777812 27.4423788,56.9323296 C28.7420522,56.3966844 30.0782381,55.8784586 31.4283336,55.355878 C35.3960321,53.817749 39.4837004,52.2343296 42.9723889,50.0212006 C33.3617607,48.1799748 20.1972431,46.8325877 10.3571075,48.2801361 C7.79514263,48.9054909 7.50651952,48.6938457 7.29700695,48.5405554 C6.93101198,48.2731683 7.00055972,47.822007 7.0318562,47.6295231 C7.03968032,47.5763941 8.41933359,42.1372006 9.29824314,41.8436844 C9.87114263,41.6529425 33.8659818,40.6347812 46.8905346,44.150878 C54.9580723,46.3282973 55.115424,48.1799748 55.1667155,48.7887812 C55.3266753,50.6866199 47.8781125,54.599878 47.8024793,54.6390715 C42.2621326,57.5332973 39.3524291,59.0313619 33.8042582,61.4378457 C33.0600974,61.7609748 32.3055044,62.0483941 31.5578663,62.3332006 C31.0067004,62.5439748 30.459012,62.7521361 29.9217557,62.9733619 C23.9867255,65.4181683 17.9317255,69.450749 11.4368361,75.2853619 C14.9150924,75.9734264 18.3611828,76.8504909 21.7046904,77.7031683 C27.7379567,79.2404264 33.9772582,80.8299425 40.0861577,81.2009748 C43.6261376,81.4152328 45.7655999,81.2532328 46.460208,80.7280393 C47.2895647,80.0983296 48.0485044,79.3702006 48.8830773,78.5514909 C49.7419919,77.711878 50.5443989,76.6719425 51.3355044,75.3733296 C53.4714894,71.8824909 54.9389467,67.3839425 56.3594592,63.0325877 C56.5785346,62.3602006 56.7958713,61.6965231 57.013208,61.0398135 C58.7440773,55.815749 64.798208,41.9238135 65.0546652,41.3341683 L65.1163889,41.1930715 L68.4399014,38.4425554 C68.5268361,38.3972651 68.9988914,38.1803941 69.6265597,38.4033619 C70.3037808,38.642878 70.878419,39.2934909 71.3339567,40.3377812 C71.4113286,40.5163296 71.8520874,41.4003619 72.4606301,42.6240715 C75.4581376,48.6494264 83.2109718,64.2362651 87.8167708,75.6964586 C90.0727255,70.4035877 92.7129316,64.0402973 93.7248512,60.9631683 C94.4446703,58.7718135 94.9636703,56.4646199 95.5130974,54.0215554 C96.41461,50.010749 97.3404642,45.8910715 99.2312934,42.0483619 C103.0286,34.3254909 109.50958,34.485749 114.734354,35.4917167 C118.183052,36.1545231 121.343997,37.0516199 125.103922,41.3393941 C128.437866,45.1394264 129.705374,50.496749 129.00468,53.4798135 C127.480715,59.973749 123.586042,61.5502006 120.742409,62.700749 C120.279047,62.888878 119.846982,63.0630715 119.418394,63.2599102 C118.95764,63.4698135 118.47863,63.644007 117.971801,63.8277812 C117.595374,63.9645231 116.737329,64.2763296 116.222675,64.5437167 C117.145922,67.8734264 121.507434,73.4693941 127.831932,79.4302973 L146.51767,40.1365877 C147.001027,39.1166844 149.168308,37.6212328 149.596896,37.3320715 L149.762072,37.2205877 L149.961153,37.2205877 C151.253871,37.2327812 152.407494,37.9844264 152.929972,39.1375877 C152.956052,39.1950715 153.355952,40.0512328 154.02361,41.4831038 C172.396384,80.8804586 172.396384,81.1121361 172.396384,81.357749 C172.396384,81.9674264 170.380369,86.3632006 169.708364,86.999007 C169.524932,87.1705877 169.320635,87.2542006 169.108514,87.2402651 C168.853796,87.2254586 168.323494,87.1941038 167.007303,84.8163619 C163.322143,78.4016844 158.498138,67.4841038 154.242685,57.8529425 C152.672645,54.2993941 151.177369,50.9156844 149.917685,48.173007 L133.838248,81.9874586 C133.813906,82.0405877 130.413022,87.6600715 129.671469,87.9544586 C129.441092,88.0459102 129.275047,88.0781361 129.123781,88.0781361" id="Fill-4-Copy" fill="#161616"></path>
    </g>
</svg>