<?xml version="1.0" encoding="UTF-8"?>
<svg width="174px" height="136px" viewBox="0 0 174 136" version="1.1" xmlns="http://www.w3.org/2000/svg" xmlns:xlink="http://www.w3.org/1999/xlink">
    <!-- Generator: Sketch 52.5 (67469) - http://www.bohemiancoding.com/sketch -->
    <title>logo/normal</title>
    <desc>Created with Sketch.</desc>
    <g id="logo/normal" stroke="none" stroke-width="1" fill="none" fill-rule="evenodd">
        <path d="M135.312851,100 L38.6862662,100 C37.7548469,100 37,99.2451531 37,98.3137338 L37,1.68714906 C37,0.755729774 37.7548469,0 38.6862662,0 L135.312851,0 C136.24427,0 137,0.755729774 137,1.68714906 L137,98.3137338 C137,99.2451531 136.24427,100 135.312851,100" id="Fill-1" fill="#FFC800"></path>
        <path d="M129.123781,88.0781361 C129.052494,88.0781361 128.984685,88.0702973 128.916007,88.0598457 C128.1136,88.0563619 127.357268,87.7732973 126.764374,87.2620393 C123.093123,84.083878 111.009203,73.0922651 109.666062,65.0636844 C108.850615,60.189749 113.863268,58.3711683 115.75062,57.6857167 L115.884499,57.6378135 C116.190509,57.5272006 116.473917,57.4261683 116.707771,57.3190393 C117.238072,57.0751683 117.771851,56.8574264 118.301283,56.6440393 C120.776313,55.6424264 121.906464,55.1851683 122.658449,51.9852328 C122.826233,51.2666844 122.243771,47.9735554 120.206022,45.6515554 C117.858786,42.9750715 116.361771,42.4551038 113.505967,41.9063941 C108.653273,40.9744586 106.682464,41.6808135 105.081128,44.934749 C103.532821,48.0832973 102.730414,51.6507812 101.880193,55.4272973 C101.318595,57.9261038 100.740479,60.5006844 99.9180773,63.0047167 C98.0376803,68.7278457 93.2623587,79.6088457 92.7242331,80.8308135 C92.460821,81.4282973 88.6739467,87.3151683 87.9715145,87.6234909 C87.6255145,87.7698135 87.2647356,87.6374264 87.0221879,87.5233296 C86.3267105,87.1958457 84.891419,86.1141038 84.5645446,84.9818457 C82.2260019,76.8827167 74.0237155,60.3735231 69.123208,50.5098135 L68.6372431,49.5291038 C66.5629818,54.4161038 64.128811,60.2951361 63.2003487,63.0979102 L62.5587708,65.0567167 C61.0208964,69.7695231 59.4317306,74.6417167 56.8984542,78.7805554 C55.8256803,80.5433941 54.6946602,81.9970393 53.4401929,83.2251038 C52.4743487,84.1692328 51.5154592,85.0863619 50.3957406,85.9346844 C47.653821,88.0197812 43.4322733,87.9509748 39.6914743,87.7210393 C32.9801175,87.3142973 26.4426301,85.649007 20.1190019,84.0394586 C15.1559014,82.7748135 10.5353235,81.8446199 6.27726324,81.0250393 C5.28620796,80.8351683 2.97461499,79.8292006 2.27652957,78.6655877 C0.859494392,76.3052651 5.30446424,72.0453619 6.21032354,71.2153296 C13.5910773,64.4496522 20.5362884,59.7777812 27.4423788,56.9323296 C28.7420522,56.3966844 30.0782381,55.8784586 31.4283336,55.355878 C35.3960321,53.817749 39.4837004,52.2343296 42.9723889,50.0212006 C33.3617607,48.1799748 20.1972431,46.8325877 10.3571075,48.2801361 C7.79514263,48.9054909 7.50651952,48.6938457 7.29700695,48.5405554 C6.93101198,48.2731683 7.00055972,47.822007 7.0318562,47.6295231 C7.03968032,47.5763941 8.41933359,42.1372006 9.29824314,41.8436844 C9.87114263,41.6529425 33.8659818,40.6347812 46.8905346,44.150878 C54.9580723,46.3282973 55.115424,48.1799748 55.1667155,48.7887812 C55.3266753,50.6866199 47.8781125,54.599878 47.8024793,54.6390715 C42.2621326,57.5332973 39.3524291,59.0313619 33.8042582,61.4378457 C33.0600974,61.7609748 32.3055044,62.0483941 31.5578663,62.3332006 C31.0067004,62.5439748 30.459012,62.7521361 29.9217557,62.9733619 C23.9867255,65.4181683 17.9317255,69.450749 11.4368361,75.2853619 C14.9150924,75.9734264 18.3611828,76.8504909 21.7046904,77.7031683 C27.7379567,79.2404264 33.9772582,80.8299425 40.0861577,81.2009748 C43.6261376,81.4152328 45.7655999,81.2532328 46.460208,80.7280393 C47.2895647,80.0983296 48.0485044,79.3702006 48.8830773,78.5514909 C49.7419919,77.711878 50.5443989,76.6719425 51.3355044,75.3733296 C53.4714894,71.8824909 54.9389467,67.3839425 56.3594592,63.0325877 C56.5785346,62.3602006 56.7958713,61.6965231 57.013208,61.0398135 C58.7440773,55.815749 64.798208,41.9238135 65.0546652,41.3341683 L65.1163889,41.1930715 L68.4399014,38.4425554 C68.5268361,38.3972651 68.9988914,38.1803941 69.6265597,38.4033619 C70.3037808,38.642878 70.878419,39.2934909 71.3339567,40.3377812 C71.4113286,40.5163296 71.8520874,41.4003619 72.4606301,42.6240715 C75.4581376,48.6494264 83.2109718,64.2362651 87.8167708,75.6964586 C90.0727255,70.4035877 92.7129316,64.0402973 93.7248512,60.9631683 C94.4446703,58.7718135 94.9636703,56.4646199 95.5130974,54.0215554 C96.41461,50.010749 97.3404642,45.8910715 99.2312934,42.0483619 C103.0286,34.3254909 109.50958,34.485749 114.734354,35.4917167 C118.183052,36.1545231 121.343997,37.0516199 125.103922,41.3393941 C128.437866,45.1394264 129.705374,50.496749 129.00468,53.4798135 C127.480715,59.973749 123.586042,61.5502006 120.742409,62.700749 C120.279047,62.888878 119.846982,63.0630715 119.418394,63.2599102 C118.95764,63.4698135 118.47863,63.644007 117.971801,63.8277812 C117.595374,63.9645231 116.737329,64.2763296 116.222675,64.5437167 C117.145922,67.8734264 121.507434,73.4693941 127.831932,79.4302973 L146.51767,40.1365877 C147.001027,39.1166844 149.168308,37.6212328 149.596896,37.3320715 L149.762072,37.2205877 L149.961153,37.2205877 C151.253871,37.2327812 152.407494,37.9844264 152.929972,39.1375877 C152.956052,39.1950715 153.355952,40.0512328 154.02361,41.4831038 C172.396384,80.8804586 172.396384,81.1121361 172.396384,81.357749 C172.396384,81.9674264 170.380369,86.3632006 169.708364,86.999007 C169.524932,87.1705877 169.320635,87.2542006 169.108514,87.2402651 C168.853796,87.2254586 168.323494,87.1941038 167.007303,84.8163619 C163.322143,78.4016844 158.498138,67.4841038 154.242685,57.8529425 C152.672645,54.2993941 151.177369,50.9156844 149.917685,48.173007 L133.838248,81.9874586 C133.813906,82.0405877 130.413022,87.6600715 129.671469,87.9544586 C129.441092,88.0459102 129.275047,88.0781361 129.123781,88.0781361" id="Fill-4" fill="#161616"></path>
        <g id="Group" transform="translate(0.500000, 107.129032)" fill="#050505">
            <polygon id="Fill-6" points="36.142395 1.91456129 30.4768623 9.14446452 36.142395 9.14446452 36.142395 10.8001742 27.923591 10.8001742 27.923591 9.52769032 33.6099879 2.26904516 28.2478573 2.26904516 28.2478573 0.584593548 36.142395 0.584593548"></polygon>
            <polygon id="Fill-8" points="37.9000402 10.8 39.7326231 10.8 39.7326231 0.584419355 37.9000402 0.584419355"></polygon>
            <polygon id="Fill-10" points="50.5197382 0.584332258 46.4564116 10.7999129 45.0854518 10.7999129 41.0012608 0.584332258 43.0285774 0.584332258 45.7783211 7.82120323 48.5124166 0.584332258"></polygon>
            <polygon id="Fill-11" points="51.7869849 10.8 53.6195678 10.8 53.6195678 0.584419355 51.7869849 0.584419355"></polygon>
            <polygon id="Fill-12" points="56.0354824 0.584332258 57.8680653 0.584332258 57.8680653 9.06494516 62.2269698 9.06494516 62.2269698 10.7999129 56.0354824 10.7999129"></polygon>
            <path d="M62.7466653,5.68846452 C62.7466653,2.89091613 64.3123588,0.41823871 67.6680372,0.41823871 C69.688399,0.41823871 71.3053839,1.44423871 72.1277859,3.3534 L70.4177809,4.03275484 C70.0352683,2.68798065 68.9816201,2.1680129 67.6541276,2.1680129 C65.4955397,2.1680129 64.5653387,3.72181935 64.5653387,5.61617419 C64.5653387,7.64814194 65.4955397,9.20194839 67.6828161,9.20194839 C68.9955296,9.20194839 69.8987809,8.68198065 70.4464693,7.30759355 L72.1425648,8.00175484 C71.3340724,9.91091613 69.7101327,10.9447548 67.6828161,10.9447548 C64.3271377,10.9447548 62.7466653,8.49385161 62.7466653,5.68846452" id="Fill-13"></path>
            <path d="M80.9197503,5.68846452 C80.9197503,3.76536774 80.1182126,2.06610968 77.9318055,2.06610968 C75.7462678,2.06610968 74.9447302,3.76536774 74.9447302,5.68846452 C74.9447302,7.61852903 75.7462678,9.3177871 77.9318055,9.3177871 C80.1182126,9.3177871 80.9197503,7.61852903 80.9197503,5.68846452 M73.0104337,5.68846452 C73.0104337,2.90485161 74.5630869,0.432174194 77.9318055,0.432174194 C81.3013935,0.432174194 82.8540467,2.90485161 82.8540467,5.68846452 C82.8540467,8.47207742 81.3013935,10.9447548 77.9318055,10.9447548 C74.5630869,10.9447548 73.0104337,8.47207742 73.0104337,5.68846452" id="Fill-14"></path>
            <path d="M84.4734658,6.81636774 L84.4734658,0.584593548 L86.299094,0.584593548 L86.299094,6.60646452 C86.299094,8.25520645 86.7320286,9.17320645 88.3698779,9.17320645 C90.0155513,9.17320645 90.4415312,8.25520645 90.4415312,6.60646452 L90.4415312,0.584593548 L92.2741141,0.584593548 L92.2741141,6.74407742 C92.2741141,9.3177871 91.1057121,10.9447548 88.3698779,10.9447548 C85.6349131,10.9447548 84.4734658,9.3177871 84.4734658,6.81636774" id="Fill-15"></path>
            <path d="M98.0171055,4.93664516 C98.9907739,4.89309677 99.5680201,4.38706452 99.5680201,3.6206129 C99.5680201,2.77490323 98.9116633,2.22532258 97.8649698,2.22532258 L96.4009899,2.22532258 L96.4009899,4.93664516 L98.0171055,4.93664516 Z M94.5536281,0.584419355 L97.8519296,0.584419355 C99.7566683,0.584419355 101.379739,1.67574194 101.379739,3.59187097 C101.379739,4.87916129 100.542558,5.85464516 99.3880653,6.25267742 L102.223874,10.8 L100.124402,10.8 L97.6128593,6.43296774 L97.0208342,6.43296774 L96.3862111,6.43296774 L96.3862111,10.8 L94.5536281,10.8 L94.5536281,0.584419355 Z" id="Fill-16"></path>
            <path d="M109.070762,7.01155161 L107.699803,3.28119677 L106.321019,7.01155161 L109.070762,7.01155161 Z M107.006933,0.584680645 L108.377893,0.584680645 L112.44035,10.8002613 L110.464325,10.8002613 L109.648009,8.58016452 L105.743772,8.58016452 L104.92224,10.8002613 L102.922742,10.8002613 L107.006933,0.584680645 Z" id="Fill-17"></path>
            <path d="M122.206852,5.27640968 L122.206852,10.8000871 L120.756782,10.8000871 L120.597691,9.36124839 C120.050003,10.3227968 118.938109,10.9446677 117.581928,10.9446677 C114.226249,10.9446677 112.645777,8.49376452 112.645777,5.68837742 C112.645777,2.89082903 114.197561,0.418151613 117.567149,0.418151613 C119.573601,0.418151613 121.189717,1.44502258 122.012119,3.3533129 L120.388179,4.03266774 C119.919601,2.64521613 118.852043,2.02334516 117.55237,2.02334516 C115.394651,2.02334516 114.46445,3.72173226 114.46445,5.6160871 C114.46445,7.64805484 115.394651,9.30376452 117.581928,9.30376452 C119.17631,9.30376452 120.302114,8.42147419 120.35949,6.75879677 L118.115707,6.75879677 L118.115707,5.27640968 L122.206852,5.27640968 Z" id="Fill-18"></path>
            <polygon id="Fill-19" points="124.361615 0.584332258 131.145128 0.584332258 131.145128 2.26878387 126.194198 2.26878387 126.194198 4.84946129 130.805213 4.84946129 130.805213 6.53478387 126.194198 6.53478387 126.194198 9.06494516 131.145128 9.06494516 131.145128 10.7999129 124.361615 10.7999129"></polygon>
            <path d="M139.884149,4.48835806 C140.649174,4.02587419 141.22642,3.54161613 141.22642,2.87619677 C141.22642,2.33358387 140.858686,1.84235806 140.165817,1.84235806 C139.559882,1.84235806 139.025234,2.21077742 139.025234,2.89100323 C139.025234,3.42577742 139.566837,4.11993871 139.884149,4.48835806 Z M141.558511,8.6237129 L139.631169,6.41842258 C138.67141,7.01155161 137.870742,7.59684194 137.870742,8.44342258 C137.870742,9.12974516 138.527098,9.46942258 139.472948,9.46942258 C140.310129,9.46942258 141.016908,9.14455161 141.558511,8.6237129 Z M143.931827,11.348971 L142.590425,9.8091 C141.760199,10.5320032 140.706551,10.9657452 139.515546,10.9657452 C137.655144,10.9657452 136.174646,10.0625516 136.174646,8.41380968 C136.174646,6.86697097 137.330008,5.98468065 138.534053,5.26874516 C138.088078,4.82106774 137.330008,3.96055161 137.330008,2.86139032 C137.330008,1.36506774 138.758345,0.461003226 140.151038,0.461003226 C141.630666,0.461003226 142.857315,1.50268065 142.857315,2.84745484 C142.857315,4.08335806 142.013179,4.89335806 141.016908,5.56574516 L142.460023,7.18487419 C142.619114,6.73719677 142.706048,6.25206774 142.706048,5.76780968 L144.423008,5.94113226 C144.372586,6.88177742 144.104827,7.77103548 143.658852,8.52964839 L145.173254,10.2358742 L143.931827,11.348971 Z" id="Fill-20"></path>
            <path d="M6.31128342,23.6568774 L4.94032362,19.9265226 L3.5615397,23.6568774 L6.31128342,23.6568774 Z M4.24745427,17.2300065 L5.61841407,17.2300065 L9.68087136,27.4455871 L7.70484623,27.4455871 L6.88852965,25.2254903 L2.98429347,25.2254903 L2.1627608,27.4455871 L0.163263317,27.4455871 L4.24745427,17.2300065 Z" id="Fill-21"></path>
            <polygon id="Fill-22" points="18.8149236 17.2296581 18.8149236 27.4452387 16.9823407 27.4452387 12.7103709 20.2658516 12.7103709 27.4452387 10.9490744 27.4452387 10.9490744 17.2296581 12.7677477 17.2296581 17.0544965 24.3724645 17.0544965 17.2296581"></polygon>
            <polygon id="Fill-23" points="23.3136191 18.8708226 20.1170312 18.8708226 20.1170312 17.2299194 28.3358352 17.2299194 28.3358352 18.8708226 25.1470714 18.8708226 25.1470714 27.4455 23.3136191 27.4455"></polygon>
            <polygon id="Fill-24" points="29.6360302 27.4450645 31.4686131 27.4450645 31.4686131 17.2294839 29.6360302 17.2294839"></polygon>
            <polygon id="Fill-25" points="33.6524121 23.7721935 37.867005 23.7721935 37.867005 22.4422258 33.6524121 22.4422258"></polygon>
            <path d="M43.5131513,21.581971 C44.4868196,21.5384226 45.0640658,21.0323903 45.0640658,20.2659387 C45.0640658,19.420229 44.407709,18.8706484 43.3610156,18.8706484 L41.8970357,18.8706484 L41.8970357,21.581971 L43.5131513,21.581971 Z M40.0496739,17.2297452 L43.3479754,17.2297452 C45.2527141,17.2297452 46.8757844,18.3210677 46.8757844,20.2371968 C46.8757844,21.5244871 46.0386035,22.499971 44.8841111,22.8980032 L47.7199201,27.4453258 L45.6204477,27.4453258 L43.108905,23.0782935 L42.5168799,23.0782935 L41.8822568,23.0782935 L41.8822568,27.4453258 L40.0496739,27.4453258 L40.0496739,17.2297452 Z" id="Fill-26"></path>
            <path d="M54.5676774,23.6568774 L53.1967176,19.9265226 L51.818803,23.6568774 L54.5676774,23.6568774 Z M52.5038482,17.2300065 L53.874808,17.2300065 L57.9381347,27.4455871 L55.9603709,27.4455871 L55.1449236,25.2254903 L51.2415568,25.2254903 L50.4182854,27.4455871 L48.4196573,27.4455871 L52.5038482,17.2300065 Z" id="Fill-27"></path>
            <path d="M58.2453618,24.5605935 L60.0640352,24.0981097 C60.1926985,25.3705935 61.0950804,25.9341097 62.1774171,25.9341097 C63.2675779,25.9341097 63.8587337,25.3557871 63.8587337,24.6328839 C63.8587337,22.5146903 58.9225829,23.2227871 58.9225829,19.8974323 C58.9225829,18.0901742 60.3883015,17.0781097 62.1052613,17.0781097 C63.3614673,17.0781097 64.509005,17.6276903 65.2088291,18.8705613 L63.6857337,19.8033677 C63.3327789,19.1092065 62.7259749,18.7120452 62.0400603,18.7120452 C61.3185025,18.7120452 60.7569045,19.1527548 60.7569045,19.8033677 C60.7569045,21.7264645 65.6921859,21.0758516 65.6921859,24.466529 C65.6921859,26.3965935 64.0969347,27.5610774 62.1487286,27.5610774 C60.3448342,27.5610774 58.5696281,26.5707871 58.2453618,24.5605935" id="Fill-28"></path>
            <path d="M66.6416864,24.5605935 L68.4603598,24.0981097 C68.5890231,25.3705935 69.491405,25.9341097 70.5737417,25.9341097 C71.6639025,25.9341097 72.2550583,25.3557871 72.2550583,24.6328839 C72.2550583,22.5146903 67.3189075,23.2227871 67.3189075,19.8974323 C67.3189075,18.0901742 68.7846261,17.0781097 70.5015859,17.0781097 C71.757792,17.0781097 72.9053296,17.6276903 73.6051538,18.8705613 L72.0820583,19.8033677 C71.7291035,19.1092065 71.1222995,18.7120452 70.4363849,18.7120452 C69.7148271,18.7120452 69.1532291,19.1527548 69.1532291,19.8033677 C69.1532291,21.7264645 74.0885106,21.0758516 74.0885106,24.466529 C74.0885106,26.3965935 72.4932593,27.5610774 70.5450533,27.5610774 C68.7411588,27.5610774 66.9659528,26.5707871 66.6416864,24.5605935" id="Fill-29"></path>
            <polygon id="Fill-30" points="75.7661759 27.4450645 77.5987588 27.4450645 77.5987588 17.2294839 75.7661759 17.2294839"></polygon>
            <path d="M79.1283744,24.5605935 L80.9470477,24.0981097 C81.0757111,25.3705935 81.978093,25.9341097 83.0604296,25.9341097 C84.1505905,25.9341097 84.7417462,25.3557871 84.7417462,24.6328839 C84.7417462,22.5146903 79.8055955,23.2227871 79.8055955,19.8974323 C79.8055955,18.0901742 81.2713141,17.0781097 82.9882739,17.0781097 C84.2444799,17.0781097 85.3920176,17.6276903 86.0918417,18.8705613 L84.5687462,19.8033677 C84.2157915,19.1092065 83.6089874,18.7120452 82.9230729,18.7120452 C82.2015151,18.7120452 81.6399171,19.1527548 81.6399171,19.8033677 C81.6399171,21.7264645 86.5751985,21.0758516 86.5751985,24.466529 C86.5751985,26.3965935 84.9799472,27.5610774 83.0317412,27.5610774 C81.2278467,27.5610774 79.4526407,26.5707871 79.1283744,24.5605935" id="Fill-31"></path>
            <polygon id="Fill-32" points="98.5783558 17.2296581 98.5783558 27.4452387 96.8179286 27.4452387 96.8179286 19.8181742 94.291607 26.5559806 92.516401 26.5559806 89.9909487 19.8181742 89.9909487 27.4452387 88.2305216 27.4452387 88.2305216 17.2296581 90.698597 17.2296581 93.4048734 24.495271 96.1102804 17.2296581"></polygon>
            <path d="M100.857783,23.4616935 L100.857783,17.2299194 L102.68428,17.2299194 L102.68428,23.2517903 C102.68428,24.9005323 103.117215,25.8185323 104.754195,25.8185323 C106.399868,25.8185323 106.824979,24.9005323 106.824979,23.2517903 L106.824979,17.2299194 L108.659301,17.2299194 L108.659301,23.3894032 C108.659301,25.9631129 107.48916,27.5900806 104.754195,27.5900806 C102.020099,27.5900806 100.857783,25.9631129 100.857783,23.4616935" id="Fill-33"></path>
            <path d="M109.932459,24.5605935 L111.751132,24.0981097 C111.881534,25.3705935 112.783047,25.9341097 113.865383,25.9341097 C114.954675,25.9341097 115.547569,25.3557871 115.547569,24.6328839 C115.547569,22.5146903 110.611419,23.2227871 110.611419,19.8974323 C110.611419,18.0901742 112.076268,17.0781097 113.793228,17.0781097 C115.049434,17.0781097 116.196102,17.6276903 116.896795,18.8705613 L115.374569,19.8033677 C115.020745,19.1092065 114.413941,18.7120452 113.728896,18.7120452 C113.007338,18.7120452 112.444002,19.1527548 112.444002,19.8033677 C112.444002,21.7264645 117.379283,21.0758516 117.379283,24.466529 C117.379283,26.3965935 115.784901,27.5610774 113.836695,27.5610774 C112.032801,27.5610774 110.257594,26.5707871 109.932459,24.5605935" id="Fill-34"></path>
            <polygon id="Fill-35" points="118.878819 23.7721935 123.093412 23.7721935 123.093412 22.4422258 118.878819 22.4422258"></polygon>
            <path d="M129.88501,23.6568774 L128.51405,19.9265226 L127.136135,23.6568774 L129.88501,23.6568774 Z M127.82118,17.2300065 L129.19214,17.2300065 L133.255467,27.4455871 L131.277703,27.4455871 L130.462256,25.2254903 L126.558889,25.2254903 L125.735618,27.4455871 L123.736989,27.4455871 L127.82118,17.2300065 Z" id="Fill-36"></path>
            <path d="M137.986713,21.581971 C138.960381,21.5384226 139.537627,21.0323903 139.537627,20.2659387 C139.537627,19.420229 138.88127,18.8706484 137.834577,18.8706484 L136.370597,18.8706484 L136.370597,21.581971 L137.986713,21.581971 Z M134.523235,17.2297452 L137.821537,17.2297452 C139.726275,17.2297452 141.349346,18.3210677 141.349346,20.2371968 C141.349346,21.5244871 140.512165,22.499971 139.357672,22.8980032 L142.193481,27.4453258 L140.094009,27.4453258 L137.582466,23.0782935 L136.990441,23.0782935 L136.355818,23.0782935 L136.355818,27.4453258 L134.523235,27.4453258 L134.523235,17.2297452 Z" id="Fill-37"></path>
            <path d="M147.506233,25.6956387 C148.451213,25.6956387 148.999771,25.2401226 148.999771,24.2785742 C148.999771,23.5487032 148.393836,22.9268323 147.433208,22.9268323 L145.333736,22.9268323 L145.333736,25.6956387 L147.506233,25.6956387 Z M147.209786,21.3434129 C147.92352,21.3434129 148.616389,21.0899613 148.616389,20.0857355 C148.616389,19.2905419 147.939168,18.8855419 147.065474,18.8855419 L145.333736,18.8855419 L145.333736,21.3434129 L147.209786,21.3434129 Z M143.501153,17.2298323 L147.036786,17.2298323 C148.587701,17.2298323 150.298575,17.937929 150.298575,19.9838323 C150.298575,20.9166387 149.742193,21.6682839 149.164947,21.9792194 C150.096017,22.3485097 150.803665,23.4616065 150.803665,24.4806387 C150.803665,26.3828323 149.209283,27.4454129 147.477545,27.4454129 L143.501153,27.4454129 L143.501153,17.2298323 Z" id="Fill-38"></path>
            <polygon id="Fill-39" points="152.596693 17.2296581 159.380206 17.2296581 159.380206 18.9141097 154.429276 18.9141097 154.429276 21.4947871 159.040291 21.4947871 159.040291 23.1801097 154.429276 23.1801097 154.429276 25.710271 159.380206 25.710271 159.380206 27.4452387 152.596693 27.4452387"></polygon>
            <polygon id="Fill-40" points="161.491588 27.4450645 163.324171 27.4450645 163.324171 17.2294839 161.491588 17.2294839"></polygon>
            <polygon id="Fill-41" points="167.815303 18.8708226 164.618715 18.8708226 164.618715 17.2299194 172.837519 17.2299194 172.837519 18.8708226 169.648755 18.8708226 169.648755 27.4455 167.815303 27.4455"></polygon>
        </g>
    </g>
</svg>