<?xml version="1.0" encoding="UTF-8"?>
<svg width="98px" height="30px" viewBox="0 0 98 30" version="1.1" xmlns="http://www.w3.org/2000/svg" xmlns:xlink="http://www.w3.org/1999/xlink">
    <!-- Generator: Sketch 52.5 (67469) - http://www.bohemiancoding.com/sketch -->
    <title>logo/plain</title>
    <desc>Created with Sketch.</desc>
    <g id="logo/plain" stroke="none" stroke-width="1" fill="none" fill-rule="evenodd">
        <path d="M73.1126462,30 C73.0716472,30 73.0326482,29.9955695 72.9931493,29.9896622 C72.5316613,29.9876931 72.0966726,29.8277038 71.7556814,29.5387385 C69.6442362,27.7424275 62.6944167,21.5299187 61.9219367,16.992129 C61.4529489,14.2373588 64.3358741,13.2094889 65.4213459,12.8220686 L65.4983439,12.7949935 C65.6743393,12.7324746 65.8373351,12.6753707 65.9718316,12.6148209 C66.2768237,12.4769839 66.5838157,12.3539152 66.8883078,12.2333078 C68.3117708,11.6671918 68.9617539,11.4087474 69.3942427,9.6001296 C69.4907402,9.19400283 69.1557489,7.33271157 67.9837793,6.02030678 C66.6338144,4.50754612 65.7728367,4.21365802 64.1303794,3.90352486 C61.3394519,3.37679075 60.2059813,3.77602567 59.2850052,5.61516456 C58.3945283,7.3947382 57.9330403,9.41109605 57.444053,11.5455999 C57.1210614,12.9579364 56.78857,14.413101 56.3155823,15.8283912 C55.2341104,19.0631293 52.4876817,25.2131192 52.1781897,25.9037808 C52.0266936,26.2414814 49.8487502,29.5687672 49.4447607,29.7430325 C49.2457659,29.8257347 49.0382712,29.7509089 48.8987749,29.6864209 C48.4987852,29.5013256 47.6733067,28.8899202 47.4853116,28.2499629 C46.1403465,23.6722989 41.422969,14.3412288 38.6045421,8.76621597 L38.3250494,8.21191448 C37.1320804,10.9740687 35.7321167,14.2969241 35.1981306,15.8810646 L34.8291402,16.9881908 C33.9446631,19.6518901 33.0306869,22.4056757 31.5737247,24.7449658 C30.9567407,25.7413301 30.3062576,26.5629369 29.5847763,27.2570445 C29.0292907,27.7906704 28.4778051,28.3090358 27.8338218,28.7885116 C26.2568627,29.9670176 23.8289258,29.9281279 21.6774816,29.7981673 C17.8175818,29.5682749 14.0576795,28.6270454 10.4207739,27.7173215 C7.56634801,27.0025383 4.90891701,26.4767888 2.45998059,26.0135581 C1.88999539,25.9062422 0.560529909,25.3376648 0.159040333,24.6799855 C-0.655938507,23.3459207 1.90049512,20.9382043 2.42148159,20.4690663 C6.66637138,16.6450752 10.6607677,14.0045128 14.6326645,12.3962508 C15.3801451,12.0935018 16.1486252,11.8005982 16.925105,11.5052333 C19.2070458,10.6358759 21.5579847,9.74092021 23.5644326,8.49004978 C18.0370761,7.44938071 10.4657727,6.68783149 4.80641967,7.50599232 C3.33295793,7.85944567 3.16696224,7.73982288 3.04646536,7.6531825 C2.83597083,7.50205412 2.87596979,7.24705574 2.89396932,7.138263 C2.89846921,7.10823423 3.69194861,4.0339777 4.19743548,3.86808107 C4.52692693,3.76027287 18.3270686,3.18480356 25.8178741,5.17211719 C30.4577537,6.40280435 30.5482513,7.44938071 30.5777505,7.79348084 C30.6697482,8.86614777 26.3858594,11.0779387 26.3423605,11.1000911 C23.1559432,12.7359205 21.4824867,13.5826333 18.2915695,14.9427887 C17.8635807,15.1254227 17.4295919,15.2878734 16.9996031,15.4488473 C16.6826113,15.5679778 16.3676195,15.6856315 16.0586275,15.8106693 C12.6452161,17.1924848 9.16280656,19.4717175 5.42740355,22.7694668 C7.42785161,23.1583639 9.40980015,23.6540847 11.3327502,24.1360218 C14.8026601,25.0048869 18.391067,25.9032886 21.9044757,26.1129977 C23.9404229,26.2340973 25.1708909,26.1425342 25.5703806,25.8456924 C26.0473682,25.4897777 26.4838568,25.0782359 26.9638444,24.6154975 C27.4578315,24.1409446 27.9193196,23.5531684 28.3743078,22.8191865 C29.6027759,20.8461489 30.4467539,18.3035492 31.2637327,15.844144 C31.3897295,15.4641078 31.5147262,15.0889943 31.639723,14.7178191 C32.6351971,11.7651545 36.1171067,3.91337036 36.2646029,3.58010027 L36.300102,3.50035174 L38.2115523,1.94574772 C38.261551,1.92014943 38.533044,1.79757299 38.8940346,1.92359535 C39.2835245,2.05897094 39.6140159,2.42670026 39.8760091,3.01693783 C39.920508,3.11785417 40.1740014,3.61751316 40.5239923,4.30915935 C42.2479475,7.71471686 46.7068318,16.5244678 49.355763,23.0018205 C50.6532293,20.0102662 52.1716899,16.413706 52.7536748,14.6744989 C53.167664,13.4359353 53.4661563,12.1318992 53.7821481,10.7510682 C54.3006346,8.48414248 54.8331208,6.15568237 55.9205925,3.98376566 C58.1045358,-0.381235566 61.8319391,-0.290656991 64.836861,0.277920478 C66.8203095,0.65254165 68.6382623,1.15958476 70.8007062,3.58305392 C72.7181564,5.73084916 73.4471375,8.75883185 73.044148,10.4448733 C72.1676707,14.1152747 69.9277289,15.0062922 68.2922713,15.6565873 C68.0257782,15.7629186 67.7772847,15.8613736 67.5307911,15.9726277 C67.265798,16.091266 66.9903051,16.1897209 66.6988127,16.2935909 C66.4823183,16.3708781 65.9888311,16.5471125 65.6928388,16.6982409 C66.223825,18.5802077 68.7322599,21.7430737 72.3696655,25.1122029 L83.1163864,2.90322233 C83.3943792,2.32676847 84.6408469,1.48153252 84.8873405,1.31809727 L84.982338,1.25508608 L85.096835,1.25508608 C85.8403157,1.26197793 86.5037985,1.68681114 86.8042907,2.33858306 C86.8192903,2.3710732 87.0492843,2.8549794 87.4332744,3.66427927 C98,25.9318405 98,26.0627856 98,26.2016071 C98,26.5461995 96.8405301,29.0307108 96.4540401,29.3900714 C96.3485429,29.4870496 96.2310459,29.534308 96.1090491,29.5264316 C95.9625529,29.5180629 95.6575608,29.500341 94.9005805,28.1564306 C92.7811355,24.5308263 90.0067075,18.3601608 87.5592711,12.9165854 C86.6562945,10.9081039 85.7963169,8.99561606 85.0718357,7.44544251 L75.8240758,26.5575219 C75.8100761,26.5875506 73.8541269,29.7637081 73.427638,29.930097 C73.2951414,29.9817858 73.1996439,30 73.1126462,30" id="Fill-1" fill="#050505"></path>
    </g>
</svg>