<?xml version="1.0" encoding="UTF-8"?>
<svg width="40px" height="40px" viewBox="0 0 40 40" version="1.1" xmlns="http://www.w3.org/2000/svg" xmlns:xlink="http://www.w3.org/1999/xlink">
    <!-- Generator: Sketch 52.5 (67469) - http://www.bohemiancoding.com/sketch -->
    <title>icon/workshop/participants</title>
    <desc>Created with Sketch.</desc>
    <g id="icon/workshop/participants" stroke="none" stroke-width="1" fill="none" fill-rule="evenodd">
        <path d="M23.2076555,8.5 L24,8.5 C24,10.9860376 21.9859071,13 19.5004306,13 C17.0142545,13 15,10.9861992 15,8.5 C15,6.0138008 17.0142545,4 19.5004306,4 C21.9859071,4 24,6.01396241 24,8.5 L23.2076555,8.5 Z M23.2076555,8.5 L22.415311,8.5 C22.415311,6.88930268 21.1107645,5.58484065 19.5004306,5.58484065 C17.8893402,5.58484065 16.584689,6.88919801 16.584689,8.5 C16.584689,10.110802 17.8893402,11.4151593 19.5004306,11.4151593 C21.1107645,11.4151593 22.415311,10.1106973 22.415311,8.5 L23.2076555,8.5 Z M10.2076176,12.5 L11,12.5 C11,14.9861721 8.98610684,17 6.50021532,17 C4.01575058,17 2,14.9854463 2,12.5 C2,10.0145537 4.01575058,8 6.50021532,8 C8.98610684,8 11,10.0138279 11,12.5 L10.2076176,12.5 Z M10.2076176,12.5 L9.41523518,12.5 C9.41523518,10.8891397 8.11089387,9.58484065 6.50021532,9.58484065 C4.89076442,9.58484065 3.58476482,10.8900648 3.58476482,12.5 C3.58476482,14.1099352 4.89076442,15.4151593 6.50021532,15.4151593 C8.11089387,15.4151593 9.41523518,14.1108603 9.41523518,12.5 L10.2076176,12.5 Z M37.2076176,12.5 L38,12.5 C38,14.9854998 35.9846263,17 33.5002153,17 C31.0139739,17 29,14.9862529 29,12.5 C29,10.0137471 31.0139739,8 33.5002153,8 C35.9846263,8 38,10.0145002 38,12.5 L37.2076176,12.5 Z M37.2076176,12.5 L36.4152352,12.5 C36.4152352,10.8899543 35.1095556,9.58484065 33.5002153,9.58484065 C31.8891585,9.58484065 30.5847648,10.8890874 30.5847648,12.5 C30.5847648,14.1109126 31.8891585,15.4151593 33.5002153,15.4151593 C35.1095556,15.4151593 36.4152352,14.1100457 36.4152352,12.5 L37.2076176,12.5 Z M29.8729229,18.913427 C31.1051763,18.3027455 32.1143759,18 33.2216592,18 C37.0116856,18 40,20.9593221 40,24.7125781 L40,34.9975117 L26.4409646,34.9975117 L26.4432782,28.2045083 L21.5523505,31.1082016 C21.5131173,31.1278643 21.3163269,31.240844 21.2489007,31.2742496 C21.1026906,31.3466879 20.9563082,31.3950392 20.7970288,31.4165484 C20.6719292,31.4676348 20.552472,31.5020741 20.4267853,31.5226152 C20.2938566,31.5443398 20.2100824,31.5474971 20.0012563,31.5474971 C19.7964927,31.5474971 19.6659035,31.5179248 19.4579103,31.4497449 C19.395599,31.4293195 19.3955275,31.4293033 19.3994723,31.4293033 C19.1599378,31.4293033 18.9561497,31.3744334 18.7520621,31.2726754 C18.6887278,31.241097 18.5018293,31.1341818 18.4647535,31.1156363 C18.4603586,31.1134453 18.4603586,31.1134453 18.401297,31.0817159 L13.5583567,28.2046778 L13.5583567,35 L0,35 L0,24.7150664 C0,20.960144 2.98957831,18 6.78001591,18 C7.88634814,18 8.89283352,18.301581 10.1792379,18.9381233 L20.0034087,24.6616846 L29.8729229,18.913427 Z M38.4588969,24.7125781 C38.4588969,21.8021923 36.1605578,19.5261514 33.2216592,19.5261514 C32.3934721,19.5261514 31.5996193,19.764296 30.6084973,20.2535169 L20.0033582,26.4323237 L19.6126294,26.2046851 L9.4449946,20.2788723 C8.40034465,19.7636363 7.6077716,19.5261514 6.78001591,19.5261514 C3.84065595,19.5261514 1.54110306,21.8030638 1.54110306,24.7150664 L1.54110306,33.4738486 L12.0172537,33.4738486 L12.0172537,25.5094615 L13.1841965,26.2027055 L19.1394088,29.7434171 C19.1495875,29.7484223 19.1495875,29.7484223 19.1595671,29.7533976 C19.2376753,29.7924676 19.3906958,29.879325 19.4339605,29.9034464 C19.6188065,29.9066759 19.7460455,29.9366085 19.9412592,30.0005988 C20.004389,30.0212927 20.0046226,30.0213456 20.0012563,30.0213456 C20.1227476,30.0213456 20.1558631,30.0200976 20.1758482,30.0168314 C20.1887037,30.0147304 20.2082682,30.0080826 20.2609011,29.982293 L20.4224165,29.9031518 L20.570753,29.9031518 C20.6150431,29.8784332 20.7692095,29.7904924 20.8080142,29.7729875 L27.9852994,25.5091888 L27.9825875,33.4713603 L38.4588969,33.4713603 L38.4588969,24.7125781 Z M19.5121886,23 L13,19.1886756 L13.2034782,18.6041372 C14.1590493,15.8590382 16.6036954,14 19.5121749,14 C22.4639756,14 25.0176325,15.9132486 25.8308306,18.6362099 L26,19.202667 L19.5121886,23 Z M24.196866,18.5192311 C23.4161764,16.7252971 21.5959726,15.5020387 19.5121749,15.5020387 C17.4634021,15.5020387 15.7133777,16.6918112 14.847939,18.5314177 L19.5121612,21.2612011 L24.196866,18.5192311 Z" id="Combined-Shape" fill="#FFC800" fill-rule="nonzero"></path>
    </g>
</svg>