<?xml version="1.0" encoding="UTF-8"?>
<svg width="74px" height="74px" viewBox="0 0 74 74" version="1.1" xmlns="http://www.w3.org/2000/svg" xmlns:xlink="http://www.w3.org/1999/xlink">
    <!-- Generator: Sketch 52.5 (67469) - http://www.bohemiancoding.com/sketch -->
    <title>icon/act/act</title>
    <desc>Created with Sketch.</desc>
    <g id="icon/act/act" stroke="none" stroke-width="1" fill="none" fill-rule="evenodd">
        <path d="M37,74 C16.5654643,74 0,57.4345357 0,37 C0,16.5654643 16.5654643,0 37,0 C57.4345357,0 74,16.5654643 74,37 C74,57.4345357 57.4345357,74 37,74 Z M17.2138829,43.213013 C14.6379804,44.0005455 12.1927447,46.8606356 13.2427879,50.2951722 C14.3022065,53.7603744 17.1476492,55.170601 20.3981928,54.1768101 C22.1154612,53.6517884 23.3172766,52.6472515 23.9397688,51.2833218 C25.164043,52.2167657 26.776618,52.2267298 28.6472139,51.6548312 L29.2181458,47.4899898 C27.654205,47.9681345 27.0262475,47.120633 25.7418196,42.9194587 C24.0261239,37.3076712 19.8603072,35.965805 16.3644395,37.034599 C14.2485196,37.6815006 12.2818239,39.2552034 11.2173179,41.257248 L13.8219265,44.1829745 C14.6514592,43.0575328 15.6811963,42.0385418 17.2144716,41.5697725 C18.993071,41.0260001 19.9915539,41.659625 20.6468556,43.0352761 C19.5555941,42.8659304 18.2871756,42.8848745 17.2138829,43.213013 Z M19.304014,46.4301585 C20.2546447,46.1395215 21.1388657,46.0703791 21.7582298,46.4510619 L22.3488791,48.3829888 C22.0457388,49.1463051 21.1914013,49.6422252 20.3634326,49.8953606 C19.412802,50.1859976 18.2814996,49.9953619 17.9439857,48.8914037 C17.587721,47.7261144 18.5987074,46.6457924 19.304014,46.4301585 Z M26.5926552,43.0617144 C28.4489817,49.1334845 33.8013778,50.0790452 37.1132524,49.0665035 C40.7624476,47.9508326 42.2918215,44.3983259 42.2918215,44.3983259 L39.6258819,41.4913502 C39.6258819,41.4913502 38.6772019,43.3238559 36.561282,43.9707575 C34.200038,44.6926622 32.1936967,43.3947469 31.6217982,41.5241511 C31.0311489,39.5922242 32.0325665,37.2741492 34.5900695,36.492242 C36.7550544,35.8303397 38.2008232,36.8301933 38.2008232,36.8301933 L38.8041779,32.9907578 C38.8041779,32.9907578 36.1247595,31.0267947 32.2609058,32.2080933 C28.5503796,33.342515 24.7550796,37.0512752 26.5926552,43.0617144 Z M44.6983999,40.7452902 C46.1984617,45.6517711 49.3204826,45.3343787 51.0990819,44.7906063 C52.8776813,44.2468339 53.7021353,43.3241361 54.5717088,42.2199845 L51.8614316,39.0583094 C51.8614316,39.0583094 51.3248819,39.8259224 50.8342338,39.9759286 C49.8222721,40.2853163 49.5427679,39.7001323 48.8864908,37.5535469 L47.3489275,32.524404 L51.8260914,31.1555976 L50.5416635,26.9544233 L46.0644997,28.3232297 L44.8644503,24.3980449 L40.1419624,25.8418544 L41.3420118,29.7670391 L38.8581058,30.5264454 L40.1425337,34.7276197 L42.6264396,33.9682134 L44.6983999,40.7452902 Z M59.5684505,36.4002506 C58.0351752,36.8690199 57.1435295,38.4493655 57.593548,39.9213098 C58.0435665,41.393254 59.657117,42.1741524 61.1903922,41.7053831 C62.7236675,41.2366138 63.5940231,39.6963092 63.1440046,38.2243649 C62.6939861,36.7524206 61.1017258,35.9314813 59.5684505,36.4002506 Z M56.9913793,35.2097612 L61.0392261,33.9722103 L58.0406753,18.0224392 L50.5582918,20.3100334 L56.9913793,35.2097612 Z" id="Combined-Shape" fill="#EF542B" fill-rule="nonzero"></path>
    </g>
</svg>