<?xml version="1.0" encoding="UTF-8"?>
<svg width="100px" height="100px" viewBox="0 0 100 100" version="1.1" xmlns="http://www.w3.org/2000/svg" xmlns:xlink="http://www.w3.org/1999/xlink">
    <!-- Generator: Sketch 52.5 (67469) - http://www.bohemiancoding.com/sketch -->
    <title>icon/act/donate-text</title>
    <desc>Created with Sketch.</desc>
    <g id="icon/act/donate-text" stroke="none" stroke-width="1" fill="none" fill-rule="evenodd">
        <path d="M50,100 C22.3857625,100 0,77.6142375 0,50 C0,22.3857625 22.3857625,0 50,0 C77.6142375,0 100,22.3857625 100,50 C100,77.6142375 77.6142375,100 50,100 Z M25.7649623,46.9602024 C25.070685,47.1724642 24.0987511,47.0785255 23.4458821,46.7490076 L23.0646355,49.1890935 C24.2622322,49.7201549 25.653198,49.7549984 26.8944816,49.3754999 C30.6814484,48.217708 29.6417143,44.4406577 28.7733704,41.6004325 L26.7858275,35.0994728 L24.3242991,35.8520376 L26.7813909,43.8888227 C27.1415928,45.0669902 27.1955942,46.5228143 25.7649623,46.9602024 Z M35.36385,36.5948423 C36.7313658,36.1767507 37.8898329,36.8808119 38.2547248,38.1495663 L33.7314033,39.5324845 C33.3454727,38.2701622 34.0384116,37.0000694 35.36385,36.5948423 Z M34.7334966,34.5330492 C31.5356135,35.5107402 30.7260876,38.6568946 31.6265925,41.6023133 C32.5785547,44.7160416 35.3876861,46.7558615 38.669724,45.7524418 C39.9741237,45.3536468 41.4964156,44.313105 41.9678453,42.9957083 L40.5228781,41.5050407 C40.115101,42.503909 39.0784415,43.3269625 38.0685836,43.635707 C36.3013324,44.1760099 34.7068156,43.0991477 34.1922414,41.4160514 L40.987743,39.338458 C40.873706,38.8902131 40.7321981,38.4273616 40.5971224,37.9855488 C39.7738036,35.2925946 37.552683,33.6711374 34.7334966,34.5330492 Z M48.76187,42.6439579 C49.5823795,42.393103 50.1719997,41.9137701 50.7037304,41.245089 L49.3575245,39.7012218 C49.141911,39.9741885 48.8146717,40.2582773 48.4780524,40.3611921 C47.2157301,40.7471228 46.7882586,39.198433 46.5181071,38.3148074 L45.1480533,33.8335633 L48.2828203,32.8751689 L47.6588991,30.8344145 L44.5241321,31.792809 L43.649356,28.9315451 L41.3561372,29.6326525 L42.2309133,32.4939163 L40.6530105,32.9763296 L41.2769317,35.017084 L42.8548345,34.5346707 L44.4500145,39.7522694 C45.0546392,41.7299076 46.5738447,43.3129044 48.76187,42.6439579 Z M57.3156645,27.882045 L49.6996535,30.2104933 L50.3171425,32.2302089 L55.1560446,30.7508081 L52.0078648,39.1899993 L52.6382182,41.2517924 L60.7801969,38.7625397 L60.1498435,36.7007466 L54.8060125,38.3345197 L57.9267214,29.880722 L57.3156645,27.882045 Z M67.1496979,37.0222348 C67.9702074,36.7713798 68.5598276,36.292047 69.0915582,35.6233658 L67.7453524,34.0794987 C67.5297388,34.3524653 67.2024995,34.6365542 66.8658803,34.739469 C65.603558,35.1253996 65.1760864,33.5767098 64.905935,32.6930843 L63.5358812,28.2118402 L66.6706482,27.2534457 L66.046727,25.2126914 L62.91196,26.1710858 L62.0371838,23.309822 L59.743965,24.0109293 L60.6187412,26.8721932 L59.0408383,27.3546065 L59.6647595,29.3953608 L61.2426624,28.9129475 L62.8378424,34.1305463 C63.4424671,36.1081845 64.9616726,37.6911812 67.1496979,37.0222348 Z M21.1503067,69.2263206 C20.1211583,65.8601278 15.4851381,67.8526319 14.9512674,66.1064194 C14.7004124,65.2859099 15.5798845,64.6259396 16.2952005,64.4072456 C16.9894777,64.1949837 17.9859347,64.1433937 18.6744489,64.4390086 L18.9237003,62.5453925 C17.9575294,61.9435771 16.2895761,62.1314485 15.2586795,62.4466252 C13.2600026,63.0576821 11.7430698,64.7177263 12.4120163,66.9057516 C13.4733256,70.3771379 18.0076366,68.2776981 18.5415073,70.0239106 C18.8245231,70.9496136 18.0485024,71.6469713 17.2069542,71.9042584 C16.3022899,72.180842 15.1088468,72.0395994 14.2327264,71.7323258 L13.8888672,74.0689603 C15.1659286,74.4837061 16.9227268,74.360693 18.1850491,73.9747623 C20.2889195,73.3315446 21.8514141,71.5195394 21.1503067,69.2263206 Z M26.3250382,59.0632998 C25.1047933,59.4363661 24.5958435,60.0290668 23.9987181,61.0858247 L23.7028379,60.1180443 L21.4096191,60.8191517 L25.9121434,75.5462449 L28.2053622,74.8451375 L26.7581222,70.111429 C27.661177,70.732541 28.8873175,70.6797453 29.9182141,70.3645686 C33.0109037,69.4190385 33.6006625,66.1560318 32.7580472,63.3999615 C31.9347285,60.7070073 29.3335729,58.1434984 26.3250382,59.0632998 Z M26.3464748,61.5413096 C28.2820356,60.9495493 29.7544737,62.4548234 30.2819123,64.1799971 C30.7964865,65.8630935 30.3204994,67.9180505 28.4690934,68.4840821 C27.7748161,68.696344 26.6912565,68.6135275 26.1470654,68.1127521 L24.6419358,63.1896952 C24.9036477,62.4655357 25.5890814,61.772868 26.3464748,61.5413096 Z M38.2952534,57.6581492 C39.6627692,57.2400577 40.8212362,57.9441188 41.1861282,59.2128733 L36.6628067,60.5957914 C36.276876,59.3334692 36.969815,58.0633764 38.2952534,57.6581492 Z M37.6649,55.5963562 C34.4670169,56.5740471 33.657491,59.7202016 34.5579958,62.6656202 C35.5099581,65.7793485 38.3190894,67.8191684 41.6011273,66.8157488 C42.905527,66.4169537 44.4278189,65.3764119 44.8992487,64.0590153 L43.4542815,62.5683477 C43.0465044,63.567216 42.0098448,64.3902694 40.999987,64.6990139 C39.2327358,65.2393168 37.638219,64.1624547 37.1236448,62.4793583 L43.9191464,60.401765 C43.8051093,59.95352 43.6636014,59.4906685 43.5285257,59.0488557 C42.705207,56.3559015 40.4840864,54.7344444 37.6649,55.5963562 Z M49.2993036,52.039362 C48.1421749,52.3931318 47.145314,53.572101 47.1010906,54.7818928 L46.5929486,53.1198352 L44.2366136,53.8402391 L47.5749138,64.7593268 L49.9312487,64.0389229 L48.1559677,58.2322404 C47.7700371,56.9699181 47.8247135,55.3428365 49.3395003,54.8797198 C50.9805192,54.3780099 51.6721139,55.6619074 52.0902055,57.0294232 L53.8654865,62.8361057 L56.179744,62.1285662 L54.0699897,55.227871 C53.3624502,52.9136135 51.908103,51.241772 49.2993036,52.039362 Z M56.6761066,55.9264404 C57.4994253,58.6193946 60.1362261,61.1490004 63.1237222,60.2356312 C64.2598122,59.8882936 64.8868199,59.3055094 65.4757709,58.2972611 L65.7523546,59.2019254 L68.0455734,58.5008181 L63.5430491,43.7737248 L61.2498303,44.4748322 L62.652045,49.0612698 C61.899209,48.5552678 60.6748107,48.5385153 59.8332625,48.7958024 C56.4881084,49.8185186 55.7370087,52.8547895 56.6761066,55.9264404 Z M59.3205512,55.0949473 C58.8252735,53.4749671 59.2492667,51.5509323 61.0375566,51.0041972 C61.7107951,50.7983675 62.8089612,50.8537132 63.3531524,51.3544886 L64.8325532,56.1933906 C64.5772735,56.9385888 63.8854076,57.6102178 63.1280142,57.8417762 C61.1714147,58.4399687 59.8140867,56.7844759 59.3205512,55.0949473 Z M72.2096452,47.2894791 C73.577161,46.8713875 74.7356281,47.5754487 75.10052,48.8442031 L70.5771985,50.2271213 C70.1912679,48.964799 70.8842068,47.6947063 72.2096452,47.2894791 Z M71.5792918,45.227686 C68.3814087,46.205377 67.5718828,49.3515315 68.4723877,52.2969501 C69.42435,55.4106784 72.2334813,57.4504983 75.5155192,56.4470786 C76.8199189,56.0482836 78.3422108,55.0077418 78.8136405,53.6903451 L77.3686733,52.1996776 C76.9608962,53.1985458 75.9242367,54.0215993 74.9143788,54.3303438 C73.1471277,54.8706467 71.5526108,53.7937846 71.0380366,52.1106882 L77.8335382,50.0330949 C77.7195012,49.5848499 77.5779933,49.1219984 77.4429176,48.6801856 C76.6195988,45.9872314 74.3984783,44.3657742 71.5792918,45.227686 Z M83.2136955,41.6706919 C82.0565667,42.0244616 81.0597059,43.2034309 81.0154825,44.4132227 L80.5073404,42.751165 L78.1510055,43.4715689 L81.4893056,54.3906566 L83.8456406,53.6702527 L82.0703596,47.8635703 C81.6844289,46.601248 81.7391054,44.9741664 83.2538921,44.5110496 C84.8949111,44.0093398 85.5865058,45.2932373 86.0045973,46.6607531 L87.7798783,52.4674356 L90.0941358,51.759896 L87.9843816,44.8592009 C87.2768421,42.5449434 85.8224949,40.8731019 83.2136955,41.6706919 Z" id="Combined-Shape" fill="#EF542B" fill-rule="nonzero"></path>
    </g>
</svg>