<?xml version="1.0" encoding="UTF-8"?>
<svg width="74px" height="74px" viewBox="0 0 74 74" version="1.1" xmlns="http://www.w3.org/2000/svg" xmlns:xlink="http://www.w3.org/1999/xlink">
    <!-- Generator: Sketch 52.5 (67469) - http://www.bohemiancoding.com/sketch -->
    <title>icon/act/important</title>
    <desc>Created with Sketch.</desc>
    <g id="icon/act/important" stroke="none" stroke-width="1" fill="none" fill-rule="evenodd">
        <path d="M37,74 C16.5654643,74 0,57.4345357 0,37 C0,16.5654643 16.5654643,0 37,0 C57.4345357,0 74,16.5654643 74,37 C74,57.4345357 57.4345357,74 37,74 Z M36.8644803,51.814073 C39.3857167,51.814073 41.3976215,53.7640731 41.3976215,56.1627762 C41.3976215,58.5459251 39.401414,60.45 36.8644803,60.45 C34.3124482,60.45 32.2698598,58.5312048 32.2698598,56.1627762 C32.2698598,53.7789176 34.3282684,51.814073 36.8644803,51.814073 Z M36.8644803,49.814073 C33.2439748,49.814073 30.2698598,52.653001 30.2698598,56.1627762 C30.2698598,59.6646937 33.2348632,62.45 36.8644803,62.45 C40.4853973,62.45 43.3976215,59.6721862 43.3976215,56.1627762 C43.3976215,52.6452745 40.4765407,49.814073 36.8644803,49.814073 Z M40.0272709,43.3741114 L33.7016897,43.3741114 L30.4815103,14.45 L43.2474503,14.45 L40.0272709,43.3741114 Z M28.2464897,12.45 L31.9119971,45.3741114 L41.8169635,45.3741114 L45.4824709,12.45 L28.2464897,12.45 Z" id="Combined-Shape" fill="#EF542B" fill-rule="nonzero"></path>
    </g>
</svg>