<?xml version="1.0" encoding="UTF-8"?>
<svg width="30px" height="30px" viewBox="0 0 30 30" version="1.1" xmlns="http://www.w3.org/2000/svg" xmlns:xlink="http://www.w3.org/1999/xlink">
    <!-- Generator: Sketch 52.5 (67469) - http://www.bohemiancoding.com/sketch -->
    <title>icon/various/question</title>
    <desc>Created with Sketch.</desc>
    <g id="icon/various/question" stroke="none" stroke-width="1" fill="none" fill-rule="evenodd">
        <path d="M13.8470191,18.2691771 L13.8470191,16.651325 C13.8470191,12.9693166 17.6040495,14.0627615 17.6040495,11.41841 C17.6040495,9.93444909 16.5466817,9.26499303 14.9943757,9.26499303 C13.1833521,9.26499303 12.4184477,10.2245467 12.4184477,11.9428173 L10,11.9428173 C10,8.80753138 11.9572553,7 14.904387,7 C17.6265467,7 20,8.53974895 20,11.4630404 C20,15.5467225 16.1754781,15.111576 16.1754781,16.6736402 L16.1754781,18.2691771 L13.8470191,18.2691771 Z M13.5433071,23 L13.5433071,20.0543933 L16.5466817,20.0543933 L16.5466817,23 L13.5433071,23 Z M15,30 C6.71572875,30 0,23.2842712 0,15 C0,6.71572875 6.71572875,0 15,0 C23.2842712,0 30,6.71572875 30,15 C30,23.2842712 23.2842712,30 15,30 Z M15,27.2727273 C21.7780401,27.2727273 27.2727273,21.7780401 27.2727273,15 C27.2727273,8.22195989 21.7780401,2.72727273 15,2.72727273 C8.22195989,2.72727273 2.72727273,8.22195989 2.72727273,15 C2.72727273,21.7780401 8.22195989,27.2727273 15,27.2727273 Z" id="Combined-Shape" fill="#EF542B"></path>
    </g>
</svg>