<?xml version="1.0" encoding="UTF-8"?>
<svg width="47px" height="47px" viewBox="0 0 47 47" version="1.1" xmlns="http://www.w3.org/2000/svg" xmlns:xlink="http://www.w3.org/1999/xlink">
    <title>icon/beratung/chat</title>
    <g id="icon/beratung/chat" stroke="none" stroke-width="1" fill="none" fill-rule="evenodd">
        <path d="M23.0961941,-1.38555833e-13 C35.7987433,-1.38555833e-13 46.0961941,10.2974508 46.0961941,23 C46.0961941,35.7025492 35.7987433,46 23.0961941,46 C18.5986448,46 14.4026064,44.7090786 10.8583961,42.477553 L-3.9346304e-13,46.0961941 L3.61927133,35.2387989 C1.38735858,31.6943777 0.0961940777,27.4979727 0.0961940777,23 C0.0961940777,10.2974508 10.3936448,-1.38555833e-13 23.0961941,-1.38555833e-13 Z M12.9498062,19.5 C10.7140536,21.337847 9.59619408,23.6570002 9.59619408,26.457529 C9.59619408,28.295376 10.1437171,29.9800438 11.2387796,31.511583 L11.2387796,31.511583 L11.2387796,31.6428571 L11.3072207,31.7084942 C11.4441035,31.9272855 11.5125439,32.1460736 11.5125439,32.3648649 L11.5125439,32.3648649 L10.6912511,36.5 L14.5239507,35.0559846 C14.7977164,34.968468 15.0030375,34.9247104 15.1399203,34.9247104 C15.3224307,34.9247104 15.5049384,34.968468 15.6874488,35.0559846 L15.6874488,35.0559846 L15.7558899,35.0559846 C17.1703456,35.5810837 18.4935263,35.8436293 19.7254716,35.8436293 C22.919404,35.8436293 25.5429519,34.6840528 27.5961941,32.3648649 C26.6380144,32.6274144 25.6342221,32.7586873 24.5847872,32.7586873 C21.2995997,32.7586873 18.4935441,31.6756865 16.1665363,29.5096525 C13.8395285,27.3436185 12.676042,24.7509803 12.676042,21.7316602 C12.676042,21.2065611 12.7672958,20.4626818 12.9498062,19.5 Z M26.0630529,8.5 C23.3233658,8.5 20.8930347,9.33956893 18.7719866,11.018732 C16.6509385,12.697895 15.3253034,14.7968174 14.7950413,17.315562 C14.6624758,18.0667665 14.5961941,18.8400537 14.5961941,19.6354467 C14.5961941,22.6844533 15.711937,25.2915358 17.9434563,27.4567723 C20.1749756,29.6220089 22.8814808,30.704611 26.0630529,30.704611 C27.0793884,30.704611 28.0515209,30.5720474 28.9794794,30.3069164 C29.6864954,30.1301624 30.2167495,29.975505 30.5702575,29.8429395 L30.5702575,29.8429395 L30.7028223,29.7766571 C30.9679533,29.6882801 31.1667986,29.6440922 31.2993641,29.6440922 C31.4761181,29.6440922 31.6970573,29.6882801 31.9621883,29.7766571 L31.9621883,29.7766571 L36.5356753,31.5 L35.4088742,26.5951009 C35.4088742,26.3299699 35.475156,26.0648428 35.6077215,25.7997118 C35.6077215,25.7555233 35.6298154,25.7113355 35.6740039,25.667147 L35.6740039,25.667147 L35.7402863,25.6008646 C36.9775643,23.700759 37.5961941,21.7123063 37.5961941,19.6354467 C37.5961941,16.5864401 36.4694042,13.9683106 34.2157906,11.7809798 C31.962177,9.59364901 29.244625,8.5 26.0630529,8.5 Z" id="Combined-Shape" fill="#050505"></path>
    </g>
</svg>