<?xml version="1.0" encoding="UTF-8"?>
<svg width="50px" height="50px" viewBox="0 0 50 50" version="1.1" xmlns="http://www.w3.org/2000/svg" xmlns:xlink="http://www.w3.org/1999/xlink">
    <!-- Generator: Sketch 52.5 (67469) - http://www.bohemiancoding.com/sketch -->
    <title>icon/report/chat</title>
    <desc>Created with Sketch.</desc>
    <g id="icon/report/chat" stroke="none" stroke-width="1" fill="none" fill-rule="evenodd">
        <path d="M10.9186103,35.3233335 L10.8418659,35.2465891 L10.8418659,35.0931003 C9.61394916,33.3023884 9,31.3326348 9,29.1837805 C9,25.9093359 10.2534795,23.1977271 12.7604762,21.0488728 C12.5558234,22.1744631 12.4534986,23.0442245 12.4534986,23.6581828 C12.4534986,27.1884435 13.7581405,30.2198174 16.3674636,32.7523957 C18.9767867,35.284974 22.1232761,36.5512442 25.8070264,36.5512442 C26.9837799,36.5512442 28.1093534,36.3977569 29.1837805,36.0907777 C26.8814366,38.8024271 23.9395969,40.1582315 20.3581731,40.1582315 C18.9767667,40.1582315 17.4930563,39.851257 15.9069971,39.2372986 L15.8302527,39.2372986 C15.6255999,39.1349722 15.4209502,39.0838098 15.2162974,39.0838098 C15.0628078,39.0838098 14.8325769,39.1349722 14.5255977,39.2372986 L10.2279106,40.9256757 L11.1488436,36.0907777 C11.1488436,35.8349617 11.0720999,35.5791495 10.9186103,35.3233335 Z M27.5721479,9 C31.2558981,9 34.4023876,10.2662701 37.0117106,12.7988484 C39.6210337,15.3314267 40.9256757,18.3628007 40.9256757,21.8930613 C40.9256757,24.2977316 40.2094017,26.600041 38.7768321,28.8000585 L38.7000877,28.8768029 C38.6489245,28.9279661 38.6233433,28.9791285 38.6233433,29.0302917 C38.4698537,29.3372709 38.3931101,29.6442455 38.3931101,29.9512247 L39.6977651,35.6303112 L34.4024006,33.6349565 C34.0954214,33.5326301 33.8396093,33.4814676 33.6349565,33.4814676 C33.4814669,33.4814676 33.2512359,33.5326301 32.9442568,33.6349565 L32.7907679,33.7117009 C32.3814624,33.8651905 31.7675132,34.044259 30.948902,34.2489118 C29.8744749,34.555891 28.7489014,34.7093782 27.5721479,34.7093782 C23.8883976,34.7093782 20.7546988,33.4558987 18.1709573,30.948902 C15.5872158,28.4419053 14.2953645,25.423322 14.2953645,21.8930613 C14.2953645,20.9721238 14.3721081,20.0767812 14.5255977,19.2070069 C15.1395561,16.2907046 16.674429,13.8604892 19.1302625,11.9162877 C21.586096,9.97208617 24.4000296,9 27.5721479,9 Z" id="ion-chatbubbles---Ionicons" fill="#EF542B"></path>
    </g>
</svg>