<?xml version="1.0" encoding="UTF-8"?>
<svg width="47px" height="47px" viewBox="0 0 47 47" version="1.1" xmlns="http://www.w3.org/2000/svg" xmlns:xlink="http://www.w3.org/1999/xlink">
    <title>icon/beratung/email</title>
    <g id="Symbols" stroke="none" stroke-width="1" fill="none" fill-rule="evenodd">
        <g id="button/beratung/email" transform="translate(-11.000000, -8.000000)" fill="#050505">
            <g id="icon/beratung/email" transform="translate(11.903806, 8.000000)">
                <path d="M23.0961941,-1.52766688e-13 C35.7987433,-1.52766688e-13 46.0961941,10.2974508 46.0961941,23 C46.0961941,35.7025492 35.7987433,46 23.0961941,46 C18.5986448,46 14.4026064,44.7090786 10.8583961,42.477553 L-3.29514194e-13,46.0961941 L3.61927133,35.2387989 C1.38735858,31.6943777 0.0961940777,27.4979727 0.0961940777,23 C0.0961940777,10.2974508 10.3936448,-1.52766688e-13 23.0961941,-1.52766688e-13 Z M38.0961941,14 L8.09619408,14 L8.09619408,33 L38.0961941,33 L38.0961941,14 Z M36.2211941,17.147 L36.2211941,31.0907618 L9.97119408,31.0907618 L9.97119408,17.796 L22.5961941,26 L36.2211941,17.147 Z M34.6851941,15.909 L22.5961941,23.7637735 L10.5061941,15.909 L34.6851941,15.909 Z" id="Combined-Shape"></path>
            </g>
        </g>
    </g>
</svg>