<?xml version="1.0" encoding="UTF-8"?>
<svg width="50px" height="50px" viewBox="0 0 50 50" version="1.1" xmlns="http://www.w3.org/2000/svg" xmlns:xlink="http://www.w3.org/1999/xlink">
    <!-- Generator: Sketch 52.5 (67469) - http://www.bohemiancoding.com/sketch -->
    <title>icon/report/personal</title>
    <desc>Created with Sketch.</desc>
    <g id="icon/report/personal" stroke="none" stroke-width="1" fill="none" fill-rule="evenodd">
        <path d="M34.2083333,24.5833333 C31.3333333,24.5833333 29,22.25 29,19.375 C29,16.5 31.3333333,14.1666667 34.2083333,14.1666667 C37.0833333,14.1666667 39.3958333,16.5 39.3958333,19.375 C39.3958333,22.25 37.0833333,24.5833333 34.2083333,24.5833333 Z M18.5833333,22.5 C15.125,22.5 12.3333333,19.7083333 12.3333333,16.25 C12.3333333,12.7916667 15.125,10 18.5833333,10 C22.0416667,10 24.8125,12.7916667 24.8125,16.25 C24.8125,19.7083333 22.0416667,22.5 18.5833333,22.5 Z M34.2083333,28.75 C38.0208333,28.75 45.6666667,30.6666667 45.6666667,34.4791667 L45.6666667,39.1666667 L22.75,39.1666667 L22.75,34.4791667 C22.75,30.6666667 30.3958333,28.75 34.2083333,28.75 Z M18.5833333,26.6666667 C19.9583333,26.6666667 21.7083333,26.875 23.5208333,27.25 C19.2708333,29.6041667 18.5833333,32.7083333 18.5833333,34.4791667 L18.5833333,39.1666667 L4,39.1666667 L4,33.9583333 C4,29.1041667 13.7291667,26.6666667 18.5833333,26.6666667 Z" id="Combined-Shape" fill="#EF542B"></path>
    </g>
</svg>