<?xml version="1.0" encoding="UTF-8"?>
<svg width="47px" height="47px" viewBox="0 0 47 47" version="1.1" xmlns="http://www.w3.org/2000/svg" xmlns:xlink="http://www.w3.org/1999/xlink">
    <title>icon/beratung/telefon</title>
    <g id="Symbols" stroke="none" stroke-width="1" fill="none" fill-rule="evenodd">
        <g id="button/beratung/telefon" transform="translate(-11.000000, -8.000000)" fill="#050505">
            <g id="icon/beratung/telefon" transform="translate(11.903806, 8.000000)">
                <path d="M23.0961941,-1.24344979e-13 C35.7987433,-1.24344979e-13 46.0961941,10.2974508 46.0961941,23 C46.0961941,35.7025492 35.7987433,46 23.0961941,46 C18.5986448,46 14.4026064,44.7090786 10.8583961,42.477553 L-3.29514194e-13,46.0961941 L3.61927133,35.2387989 C1.38735858,31.6943777 0.0961940777,27.4979727 0.0961940777,23 C0.0961940777,10.2974508 10.3936448,-1.24344979e-13 23.0961941,-1.24344979e-13 Z M16.8898802,10 L13.3170827,10 C13.224026,10 13.1309937,10.0044388 13.0340427,10.012655 C11.2571368,10.1725651 9.94981949,11.74005 10.1093757,13.5128966 C10.5160013,17.3458557 11.8159269,21.016679 13.9049692,24.2417153 C15.7983208,27.223036 18.3316309,29.7560314 21.3204252,31.6549549 C24.5242836,33.7325093 28.1778268,35.0323457 31.9800415,35.4450658 C32.0989761,35.4564657 32.2032005,35.4610516 32.3078919,35.4593899 C34.0773198,35.4530416 35.5161395,34.0027511 35.5080797,32.2231533 L35.5080797,32.2231533 L35.5080883,28.655351 C35.5427492,27.0245486 34.3523552,25.6235661 32.7362213,25.3952168 C31.6500602,25.2526172 30.5853234,24.9873551 29.5560323,24.6049173 C28.3822607,24.1617298 27.0536919,24.4447412 26.1586471,25.3301098 L26.1586471,25.3301098 L25.0978078,26.390937 C22.6634897,24.8925699 20.6156417,22.8447224 19.1172742,20.4104046 L19.1172742,20.4104046 L20.1748969,19.3527818 C21.0630622,18.4549274 21.3464143,17.126884 20.9032937,15.9489889 C20.5225319,14.9272291 20.2573126,13.862664 20.113993,12.7793034 C19.8874001,11.170283 18.5079648,9.98404587 16.8898802,10 L16.8898802,10 Z M16.8982025,11.6712311 C17.6855567,11.6635093 18.3496148,12.234562 18.4581877,13.0054299 C18.6170302,14.2063537 18.9127031,15.393156 19.3382172,16.5349942 C19.5523995,17.1043412 19.4160028,17.743619 18.9899853,18.1742925 L18.9899853,18.1742925 L17.4771803,19.68708 C17.2111874,19.953073 17.1557228,20.3640125 17.3416804,20.6910053 C19.1158548,23.8107615 21.6974476,26.3923543 24.8172039,28.1665288 C25.1441967,28.3524863 25.5551362,28.2970218 25.8211291,28.0310288 L25.8211291,28.0310288 L27.3371365,26.5150214 C27.7646117,26.092185 28.4034993,25.9560893 28.9698488,26.169923 C30.1204664,26.5974526 31.3074605,26.8931732 32.5105792,27.0510825 C33.2822844,27.1601605 33.8565467,27.8378367 33.8371524,28.6252429 L33.8371524,28.6252429 L33.8368991,28.6458178 L33.8368991,32.2269376 C33.8407843,33.0866866 33.1477864,33.7852092 32.2916027,33.7884671 C32.2410757,33.7890507 32.1981944,33.7871639 32.1494353,33.7825202 C28.6181297,33.3991336 25.2142311,32.1881143 22.2231458,30.2485734 C19.4349886,28.4770816 17.0773818,26.1197678 15.3116531,23.339464 C13.3612513,20.3283972 12.1501544,16.9084144 11.772536,13.3498221 C11.6969812,12.5091364 12.3265645,11.7542605 13.1795037,11.677496 C13.2272161,11.6734639 13.2736227,11.6712311 13.3170827,11.6712311 L13.3170827,11.6712311 Z" id="Combined-Shape"></path>
            </g>
        </g>
    </g>
</svg>