<?xml version="1.0" encoding="UTF-8"?>
<svg width="30px" height="30px" viewBox="0 0 30 30" version="1.1" xmlns="http://www.w3.org/2000/svg" xmlns:xlink="http://www.w3.org/1999/xlink">
    <!-- Generator: Sketch 52.5 (67469) - http://www.bohemiancoding.com/sketch -->
    <title>button/search</title>
    <desc>Created with Sketch.</desc>
    <g id="button/search" stroke="none" stroke-width="1" fill="none" fill-rule="evenodd">
        <path d="M18.1627732,16.7860029 L28,26.6232297 L26.6232297,28 L16.7860029,18.1627732 C15.2272494,19.4198533 13.2446232,20.1724414 11.0862207,20.1724414 C6.06803958,20.1724414 2,16.1044018 2,11.0862207 C2,6.06803958 6.06803958,2 11.0862207,2 C16.1044018,2 20.1724414,6.06803958 20.1724414,11.0862207 C20.1724414,13.2446232 19.4198533,15.2272494 18.1627732,16.7860029 Z M11.0862207,18.2253941 C15.0290773,18.2253941 18.2253941,15.0290773 18.2253941,11.0862207 C18.2253941,7.14336411 15.0290773,3.94704729 11.0862207,3.94704729 C7.14336411,3.94704729 3.94704729,7.14336411 3.94704729,11.0862207 C3.94704729,15.0290773 7.14336411,18.2253941 11.0862207,18.2253941 Z" id="Combined-Shape" fill="#050505" fill-rule="nonzero"></path>
    </g>
</svg>