<?xml version="1.0" encoding="UTF-8" standalone="no"?>
<!DOCTYPE svg PUBLIC "-//W3C//DTD SVG 1.1//EN" "http://www.w3.org/Graphics/SVG/1.1/DTD/svg11.dtd">
<svg width="100%" height="100%" viewBox="0 0 60 60" version="1.1" xmlns="http://www.w3.org/2000/svg" xmlns:xlink="http://www.w3.org/1999/xlink" xml:space="preserve" xmlns:serif="http://www.serif.com/" style="fill-rule:evenodd;clip-rule:evenodd;stroke-linejoin:round;stroke-miterlimit:1.41421;">
    <g transform="matrix(0.148613,0,0,0.148613,0.277345,0.277345)">
        <circle cx="200" cy="200" r="200" style="fill:rgb(28,120,120);"/>
        <g transform="matrix(15,0,0,15,193.24,215.732)">
            <g transform="matrix(1,0,0,1,-3.5,-7)">
                <path d="M4.777,13.682L1.895,13.682L1.895,6.886L0.455,6.886L0.455,4.544L1.895,4.544L1.895,3.138C1.895,1.228 2.708,0.091 5.018,0.091L6.941,0.091L6.941,2.434L5.74,2.434C4.84,2.434 4.781,2.761 4.781,3.372L4.777,4.544L6.956,4.544L6.7,6.886L4.776,6.886L4.776,13.682L4.777,13.682Z" style="fill:white;"/>
            </g>
        </g>
    </g>
</svg>
