<svg xmlns="http://www.w3.org/2000/svg" width="26" height="26" viewBox="0 0 26 26">
    <g fill="none" fill-rule="evenodd">
        <circle cx="13" cy="13" r="13" fill="#247F65"/>
        <path fill="#FFF" d="M13 7.671c1.736 0 1.941.007 2.627.038.633.029.977.135 1.207.224.303.118.52.259.747.486.227.228.368.444.486.747.09.23.195.574.224 1.207.031.686.038.891.038 2.627 0 1.736-.007 1.941-.038 2.627-.029.633-.135.977-.224 1.207-.118.303-.259.52-.486.747a2.014 2.014 0 0 1-.747.486c-.23.09-.574.195-1.207.224-.686.031-.891.038-2.627.038-1.736 0-1.941-.007-2.627-.038-.633-.029-.977-.135-1.207-.224a2.014 2.014 0 0 1-.747-.486 2.014 2.014 0 0 1-.486-.747c-.09-.23-.195-.574-.224-1.207-.031-.686-.038-.891-.038-2.627 0-1.736.007-1.941.038-2.627.029-.633.135-.977.224-1.207.118-.303.259-.52.486-.747.228-.227.444-.368.747-.486.23-.09.574-.195 1.207-.224.686-.031.891-.038 2.627-.038M13 6.5c1.765 0 1.987.007 2.68.04.692.03 1.164.14 1.578.301.427.166.79.389 1.151.75s.584.724.75 1.151c.16.414.27.886.302 1.578.032.693.039.915.039 2.68 0 1.765-.007 1.987-.04 2.68-.03.692-.14 1.164-.301 1.578-.166.427-.389.79-.75 1.151a3.186 3.186 0 0 1-1.151.75c-.414.16-.886.27-1.578.302-.693.032-.915.039-2.68.039-1.765 0-1.987-.007-2.68-.04-.692-.03-1.164-.14-1.578-.301a3.186 3.186 0 0 1-1.151-.75 3.186 3.186 0 0 1-.75-1.151c-.16-.414-.27-.886-.302-1.578-.032-.693-.039-.915-.039-2.68 0-1.765.007-1.987.04-2.68.03-.692.14-1.164.301-1.578.166-.427.389-.79.75-1.151a3.186 3.186 0 0 1 1.151-.75c.414-.16.886-.27 1.578-.302.693-.032.915-.039 2.68-.039zm.013 3.173a3.34 3.34 0 1 0 0 6.68 3.34 3.34 0 0 0 0-6.68zm0 5.508a2.168 2.168 0 1 1 0-4.336 2.168 2.168 0 0 1 0 4.336zm4.217-5.663a.774.774 0 1 0-1.547 0 .774.774 0 0 0 1.547 0z"/>
    </g>
</svg>
