<svg xmlns="http://www.w3.org/2000/svg" width="26" height="26" viewBox="0 0 26 26">
    <g fill="none" fill-rule="evenodd">
        <path d="M0 0h26v26H0z"/>
        <circle cx="13" cy="13" r="13" fill="#247F65"/>
        <path fill="#FFF" d="M18.038 9.954c.526-.332.93-.858 1.119-1.485a4.937 4.937 0 0 1-1.617.652 2.478 2.478 0 0 0-1.858-.848c-1.406 0-2.545 1.202-2.545 2.685 0 .21.021.415.065.611-2.115-.112-3.99-1.18-5.247-2.805-.22.398-.345.858-.345 1.35 0 .931.45 1.753 1.133 2.236a2.455 2.455 0 0 1-1.154-.336v.033c0 1.301.877 2.387 2.043 2.632a2.37 2.37 0 0 1-.671.095c-.164 0-.325-.016-.479-.048.323 1.067 1.264 1.844 2.378 1.865a4.942 4.942 0 0 1-3.77 1.112 6.942 6.942 0 0 0 3.903 1.206c4.684 0 7.243-4.091 7.243-7.64a7.82 7.82 0 0 0-.006-.347c.497-.379.93-.852 1.27-1.39a4.88 4.88 0 0 1-1.462.422z"/>
    </g>
</svg>
