<?xml version="1.0" encoding="UTF-8" standalone="no"?>
<!DOCTYPE svg PUBLIC "-//W3C//DTD SVG 1.1//EN" "http://www.w3.org/Graphics/SVG/1.1/DTD/svg11.dtd">
<svg width="100%" height="100%" viewBox="0 0 60 60" version="1.1" xmlns="http://www.w3.org/2000/svg" xmlns:xlink="http://www.w3.org/1999/xlink" xml:space="preserve" xmlns:serif="http://www.serif.com/" style="fill-rule:evenodd;clip-rule:evenodd;stroke-linejoin:round;stroke-miterlimit:1.41421;">
    <g transform="matrix(0.148613,0,0,0.148613,0.277345,0.277345)">
        <circle cx="200" cy="200" r="200" style="fill:rgb(28,120,120);"/>
        <g transform="matrix(15,0,0,15,193.24,215.732)">
            <g transform="matrix(1,0,0,1,-3.5,-7)">
                <path d="M4.777,13.682L1.895,13.682L1.895,6.886L0.455,6.886L0.455,4.544L1.895,4.544L1.895,3.138C1.895,1.228 2.708,0.091 5.018,0.091L6.941,0.091L6.941,2.434L5.74,2.434C4.84,2.434 4.781,2.761 4.781,3.372L4.777,4.544L6.956,4.544L6.7,6.886L4.776,6.886L4.776,13.682L4.777,13.682Z" style="fill:white;"/>
            </g>
        </g>
    </g>
    <g transform="matrix(2.28636,0,0,2.28636,30,30)">
        <g transform="matrix(1,0,0,1,-13,-13)">
            <g>
                <rect x="0" y="0" width="26" height="26" style="fill:none;"/>
                <circle cx="13" cy="13" r="13" style="fill:rgb(28,120,120);"/>
                <path d="M18.038,9.954C18.564,9.622 18.968,9.096 19.157,8.469C18.661,8.781 18.113,9.001 17.54,9.121C17.072,8.585 16.394,8.275 15.682,8.273C14.276,8.273 13.137,9.475 13.137,10.958C13.137,11.168 13.158,11.373 13.202,11.569C11.087,11.457 9.212,10.389 7.955,8.764C7.735,9.162 7.61,9.622 7.61,10.114C7.61,11.045 8.06,11.867 8.743,12.35C8.336,12.335 7.94,12.22 7.589,12.014L7.589,12.047C7.589,13.348 8.466,14.434 9.632,14.679C9.414,14.743 9.188,14.775 8.961,14.774C8.797,14.774 8.636,14.758 8.482,14.726C8.805,15.793 9.746,16.57 10.86,16.591C9.812,17.467 8.446,17.869 7.09,17.703C8.24,18.487 9.601,18.908 10.993,18.909C15.677,18.909 18.236,14.818 18.236,11.269C18.237,11.153 18.235,11.038 18.23,10.922C18.727,10.543 19.16,10.07 19.5,9.532C19.038,9.748 18.544,9.891 18.038,9.954Z" style="fill:white;"/>
            </g>
        </g>
    </g>
</svg>
