<svg xmlns="http://www.w3.org/2000/svg" width="26" height="26" viewBox="0 0 26 26">
    <g fill="none" fill-rule="evenodd">
        <circle cx="13" cy="13" r="13" fill="#247F65"/>
        <path fill="#FFF" d="M9.41 16.556l.01-2.394.448-.005.447-.006-.005-.368-.006-.37-1.291-.005-1.29-.005v.748l.436.006.437.005.005 2.374c.002 1.305.009 2.385.014 2.399.007.02.098.024.397.02l.389-.005.01-2.394zm7.448-.169c-.018-.048.007-.6.032-.681.056-.189.176-.28.366-.28.157 0 .257.06.325.197.042.087.046.124.053.445l.007.35h-.386c-.332 0-.387-.005-.397-.03zm.72 2.58c.378-.107.64-.366.738-.731.016-.063.036-.24.042-.395l.011-.28h-.728l-.008.25c-.01.287-.04.385-.144.476-.11.097-.313.104-.445.015-.157-.106-.196-.286-.188-.87l.006-.413.753-.005.753-.006-.01-.615c-.012-.687-.026-.791-.141-1.035-.22-.462-.827-.695-1.331-.51-.38.138-.605.39-.696.778-.031.137-.035.26-.035 1.265 0 1.232.004 1.282.13 1.535.223.448.784.683 1.293.54zm-2.982-.702a.265.265 0 0 0 .1-.143c.031-.09.034-.204.03-1.261-.005-1.101-.007-1.166-.042-1.238-.092-.185-.321-.203-.532-.041l-.069.052v2.513l.069.052c.156.12.326.144.444.066zm.456.709c.114-.033.253-.17.315-.31.12-.266.12-.273.12-1.773 0-1.232-.004-1.384-.034-1.518-.099-.426-.314-.612-.675-.585-.203.016-.362.097-.554.282a1.32 1.32 0 0 1-.165.146c-.008 0-.015-.408-.015-.906v-.906h-.707v5.555h.707v-.187c0-.124.007-.187.022-.187.012 0 .091.066.177.146.275.26.513.331.809.243zm-3.762-.018c.141-.053.307-.168.447-.31a.568.568 0 0 1 .142-.12c.019 0 .025.053.025.217v.216h.707v-4.117h-.707v3.176l-.152.152c-.12.12-.171.157-.246.178-.126.035-.207.01-.259-.08-.039-.066-.04-.097-.045-1.747l-.006-1.68h-.706v1.784c0 1.943.002 1.985.11 2.172.12.205.397.269.69.159zm.3 1.718c-.459-.008-1.002-.021-1.208-.029-1.377-.05-2.323-.102-2.512-.14a1.393 1.393 0 0 1-.745-.454c-.28-.344-.43-.763-.502-1.407a21.47 21.47 0 0 1 .01-4.689c.077-.633.267-1.09.587-1.41a1.21 1.21 0 0 1 .59-.343c.507-.13 4.464-.233 6.872-.18 1.391.031 2.894.096 3.293.141.516.06.88.328 1.13.837.19.384.25.683.328 1.605.06.73.075 1.185.064 2.028-.013 1.01-.077 1.898-.173 2.396-.1.528-.34.977-.648 1.22-.238.189-.492.273-.892.295-.119.007-.269.016-.334.022-.23.017-1.463.067-2.14.086-1.005.029-2.763.038-3.72.022zm-1.24-9.15c-.017-.028-.014-1.65.003-1.879.021-.294-.028-.526-.238-1.118A28.132 28.132 0 0 1 9.84 7.7c-.596-1.9-.564-1.788-.507-1.788.392-.004.876-.001.882.004.003.004.13.468.282 1.031l.283 1.042c.003.01.092-.319.198-.73.222-.86.347-1.336.352-1.34.01-.01.12-.011.481-.01l.4.003-.01.064c-.006.052-.28.972-.565 1.906l-.176.591c-.066.222-.146.486-.178.586l-.057.183v1.141c0 1.07-.003 1.142-.034 1.15-.072.02-.83.01-.842-.01zm5.166.068c-.198-.027-.313-.103-.392-.26-.1-.197-.1-.196-.1-2.16V7.341h.797l.008 1.688c.01 1.835.007 1.792.116 1.82.1.024.212-.03.35-.171l.133-.136.005-1.6.005-1.601.398-.006.398-.005v4.194l-.054.01a6.182 6.182 0 0 1-.717 0c-.03-.008-.034-.036-.034-.2v-.19l-.113.11c-.26.254-.54.372-.8.338zm-2.005-.801c.137-.104.137-.113.144-1.292.007-.916.003-1.072-.024-1.197-.038-.169-.103-.248-.231-.284-.166-.044-.317.051-.37.233-.04.14-.04 2.218 0 2.357.031.106.13.22.203.236a.37.37 0 0 0 .278-.053zm-.312.8c-.356-.043-.683-.254-.84-.54-.161-.293-.176-.446-.167-1.733.008-.997.01-1.06.05-1.202.094-.34.276-.572.557-.713a1.146 1.146 0 0 1 1.17.07c.233.151.374.37.45.695.033.144.036.254.036 1.26 0 1.225-.005 1.296-.13 1.56-.12.257-.393.482-.677.561a1.5 1.5 0 0 1-.449.042z"/>
    </g>
</svg>
