<?xml version="1.0" encoding="UTF-8"?>
<svg width="26px" height="26px" viewBox="0 0 26 26" version="1.1" xmlns="http://www.w3.org/2000/svg" xmlns:xlink="http://www.w3.org/1999/xlink">
    <!-- Generator: Sketch 52.5 (67469) - http://www.bohemiancoding.com/sketch -->
    <title>icon/social/facebook</title>
    <desc>Created with Sketch.</desc>
    <g id="icon/social/facebook" stroke="none" stroke-width="1" fill="none" fill-rule="evenodd">
        <path d="M13,26 C5.82029825,26 0,20.1797017 0,13 C0,5.82029825 5.82029825,0 13,0 C20.1797017,0 26,5.82029825 26,13 C26,20.1797017 20.1797017,26 13,26 Z M13.7768715,19.6818182 L13.7764313,19.6818182 L13.7764313,12.8855058 L15.6996176,12.8855058 L15.9545455,10.5437246 L13.7764313,10.5437246 L13.7803939,9.3715473 C13.7803939,8.76079703 13.839833,8.43354812 14.7393453,8.43354812 L15.9413368,8.43354812 L15.9413368,6.09090909 L14.0181504,6.09090909 C11.7075089,6.09090909 10.8947338,7.22748789 10.8947338,9.13779808 L10.8947338,10.5437246 L9.45454545,10.5437246 L9.45454545,12.8855058 L10.8947338,12.8855058 L10.8947338,19.6818182 L13.7768715,19.6818182 Z" id="Combined-Shape" fill="#247F65"></path>
    </g>
</svg>