<?xml version="1.0" encoding="UTF-8"?>
<svg width="26px" height="26px" viewBox="0 0 26 26" version="1.1" xmlns="http://www.w3.org/2000/svg" xmlns:xlink="http://www.w3.org/1999/xlink">
    <!-- Generator: Sketch 52.5 (67469) - http://www.bohemiancoding.com/sketch -->
    <title>icon/social/instagram</title>
    <desc>Created with Sketch.</desc>
    <g id="icon/social/instagram" stroke="none" stroke-width="1" fill="none" fill-rule="evenodd">
        <path d="M13,26 C5.82029825,26 0,20.1797017 0,13 C0,5.82029825 5.82029825,0 13,0 C20.1797017,0 26,5.82029825 26,13 C26,20.1797017 20.1797017,26 13,26 Z M12.9999871,7.67119488 C14.7355703,7.67119488 14.9411332,7.67780014 15.626532,7.70907191 C16.2602756,7.73799572 16.6044456,7.84388627 16.8335139,7.93287664 C17.1368914,8.05079082 17.3534458,8.1916686 17.5808886,8.41911139 C17.8083314,8.64655417 17.9492092,8.8631086 18.0670976,9.16648605 C18.1561137,9.39555435 18.2620043,9.73972444 18.2909281,10.3734422 C18.3221999,11.0588668 18.3288051,11.2644297 18.3288051,13.0000129 C18.3288051,14.7355962 18.3221999,14.941159 18.2909281,15.6265578 C18.2620043,16.2603014 18.1561137,16.6044715 18.0670976,16.8335397 C17.9492092,17.1369172 17.8083314,17.3534716 17.5808886,17.5809144 C17.3534458,17.8083572 17.1368914,17.949235 16.8335139,18.0671234 C16.6044456,18.1561395 16.2602756,18.2620301 15.626532,18.2909539 C14.9412364,18.3222257 14.7356736,18.3288309 12.9999871,18.3288309 C11.2643006,18.3288309 11.0587378,18.3222257 10.3734422,18.2909539 C9.73969864,18.2620301 9.39552855,18.1561395 9.16648605,18.0671234 C8.8630828,17.949235 8.64652837,17.8083572 8.41908558,17.5809144 C8.1916428,17.3534716 8.05076502,17.1369172 7.93287664,16.8335397 C7.84386046,16.6044715 7.73796992,16.2603014 7.70904611,15.6265836 C7.67777434,14.941159 7.67116908,14.7355962 7.67116908,13.0000129 C7.67116908,11.2644297 7.67777434,11.0588668 7.70904611,10.373468 C7.73796992,9.73972444 7.84386046,9.39555435 7.93287664,9.16648605 C8.05076502,8.8631086 8.1916428,8.64655417 8.41908558,8.41911139 C8.64652837,8.1916686 8.8630828,8.05079082 9.16648605,7.93287664 C9.39552855,7.84388627 9.73969864,7.73799572 10.3734164,7.70907191 C11.058841,7.67780014 11.2644038,7.67119488 12.9999871,7.67119488 Z M12.9999871,6.5 C11.2346802,6.5 11.0133524,6.50748252 10.3200583,6.53911551 C9.6281833,6.57069691 9.15570091,6.68056093 8.74222721,6.84125448 C8.31479475,7.00736641 7.95230539,7.22962304 7.59095131,7.59097711 C7.22959723,7.95233119 7.00734061,8.31482055 6.84122868,8.74225301 C6.68053513,9.15572671 6.5706711,9.6282091 6.53908971,10.3200841 C6.50745672,11.0133524 6.5,11.234706 6.5,13.0000129 C6.5,14.7653198 6.50745672,14.9866734 6.53908971,15.6799417 C6.5706711,16.3718167 6.68053513,16.8442991 6.84122868,17.2577728 C7.00734061,17.6851795 7.22959723,18.0476946 7.59095131,18.4090487 C7.95230539,18.7704028 8.31479475,18.9926594 8.74222721,19.1587713 C9.15570091,19.3194649 9.6281833,19.4293289 10.3200583,19.4609103 C11.0133524,19.4925433 11.2346802,19.5 12.9999871,19.5 C14.765294,19.5 14.9866476,19.4925433 15.6799159,19.4609103 C16.3717909,19.4293289 16.8442733,19.3194649 17.257747,19.1587713 C17.6851795,18.9926594 18.0476688,18.7704028 18.4090229,18.4090487 C18.770377,18.0476946 18.9926336,17.6852053 19.1587455,17.2577728 C19.3194391,16.8442991 19.4293031,16.3718167 19.4608845,15.6799417 C19.4925175,14.9866734 19.5,14.7653198 19.5,13.0000129 C19.5,11.234706 19.4925175,11.0133524 19.4608845,10.3200841 C19.4293031,9.6282091 19.3194391,9.15572671 19.1587455,8.74225301 C18.9926336,8.31482055 18.770377,7.95233119 18.4090229,7.59097711 C18.0476688,7.22962304 17.6851795,7.00736641 17.257747,6.84125448 C16.8442733,6.68056093 16.3717909,6.57069691 15.6799159,6.53911551 C14.9866476,6.50748252 14.765294,6.5 12.9999871,6.5 Z M13.0128968,9.67261905 C11.1681205,9.67261905 9.67261905,11.1681205 9.67261905,13.0128968 C9.67261905,14.8576731 11.1681205,16.3531746 13.0128968,16.3531746 C14.8576731,16.3531746 16.3531746,14.8576731 16.3531746,13.0128968 C16.3531746,11.1681205 14.8576731,9.67261905 13.0128968,9.67261905 Z M13.0128968,15.1811532 C11.8154163,15.1811532 10.8446404,14.2103773 10.8446404,13.0128968 C10.8446404,11.8154163 11.8154163,10.8446404 13.0128968,10.8446404 C14.2103773,10.8446404 15.1811532,11.8154163 15.1811532,13.0128968 C15.1811532,14.2103773 14.2103773,15.1811532 13.0128968,15.1811532 Z M17.2301587,9.51784434 C17.2301587,9.09047716 16.8837292,8.74404762 16.456362,8.74404762 C16.0289948,8.74404762 15.6825397,9.09047716 15.6825397,9.51784434 C15.6825397,9.94521153 16.0289948,10.2916667 16.456362,10.2916667 C16.8837292,10.2916667 17.2301587,9.94521153 17.2301587,9.51784434 Z" id="Combined-Shape" fill="#247F65"></path>
    </g>
</svg>