<?xml version="1.0" encoding="UTF-8"?>
<svg width="26px" height="26px" viewBox="0 0 26 26" version="1.1" xmlns="http://www.w3.org/2000/svg" xmlns:xlink="http://www.w3.org/1999/xlink">
    <!-- Generator: Sketch 52.5 (67469) - http://www.bohemiancoding.com/sketch -->
    <title>icon/social/twitter</title>
    <desc>Created with Sketch.</desc>
    <g id="icon/social/twitter" stroke="none" stroke-width="1" fill="none" fill-rule="evenodd">
        <path d="M13,26 C5.82029825,26 0,20.1797017 0,13 C0,5.82029825 5.82029825,0 13,0 C20.1797017,0 26,5.82029825 26,13 C26,20.1797017 20.1797017,26 13,26 Z M18.0381789,9.95429596 C18.5640558,9.62243772 18.9675679,9.09622733 19.1569418,8.469384 C18.6645696,8.77742834 18.1204838,9.00020354 17.5399798,9.12080942 C17.0767421,8.59843998 16.4146617,8.27272727 15.6819302,8.27272727 C14.276193,8.27272727 13.137036,9.47494518 13.137036,10.9575526 C13.137036,11.1680367 13.1581584,11.3731435 13.2018601,11.5690321 C11.086699,11.4568763 9.21116874,10.3890917 7.95474555,8.76360091 C7.73550881,9.16152351 7.61023067,9.62243772 7.61023067,10.1140796 C7.61023067,11.0451263 8.05962958,11.8670899 8.74283244,12.3495135 C8.32548144,12.3356861 7.93289472,12.2135438 7.5891082,12.0138143 L7.5891082,12.0468465 C7.5891082,13.3481609 8.46605516,14.4336139 9.63216155,14.6794348 C9.41802334,14.7424264 9.19368807,14.7739222 8.96061246,14.7739222 C8.79673118,14.7739222 8.6364917,14.7577902 8.48207911,14.7262944 C8.80547151,15.7925426 9.74578591,16.5699513 10.8601786,16.5906924 C9.98833021,17.311255 8.89068978,17.7399052 7.69836239,17.7399052 C7.49296451,17.7399052 7.28975172,17.7283823 7.09090909,17.7030321 C8.21768397,18.4643087 9.55568362,18.9090909 10.9934688,18.9090909 C15.6768317,18.9090909 18.2362932,14.8177091 18.2362932,11.2694378 C18.2362932,11.1526729 18.2348365,11.0366762 18.229738,10.9222158 C18.7272087,10.543498 19.1598553,10.0702927 19.5,9.53179126 C19.0433175,9.74534818 18.552402,9.88976797 18.0381789,9.95429596 Z" id="Combined-Shape" fill="#247F65"></path>
    </g>
</svg>