<?xml version="1.0" encoding="UTF-8"?>
<svg width="26px" height="26px" viewBox="0 0 26 26" version="1.1" xmlns="http://www.w3.org/2000/svg" xmlns:xlink="http://www.w3.org/1999/xlink">
    <!-- Generator: Sketch 52.5 (67469) - http://www.bohemiancoding.com/sketch -->
    <title>icon/social/youtube</title>
    <desc>Created with Sketch.</desc>
    <g id="icon/social/youtube" stroke="none" stroke-width="1" fill="none" fill-rule="evenodd">
        <path d="M13,26 C5.82029825,26 0,20.1797017 0,13 C0,5.82029825 5.82029825,0 13,0 C20.1797017,0 26,5.82029825 26,13 C26,20.1797017 20.1797017,26 13,26 Z M9.41052949,16.5556084 L9.40071181,18.94952 L9.01221206,18.9546803 C8.71253896,18.9589024 8.62184226,18.9542112 8.61482963,18.9349773 C8.60968704,18.9213729 8.60314192,17.8414621 8.60080437,16.5359054 L8.59566178,14.1616968 L8.15900862,14.1570056 L7.72235547,14.1513762 L7.72235547,13.7774887 L7.72235547,13.4031322 L9.01267956,13.4082925 L10.3039387,13.4134528 L10.3095488,13.782649 L10.3146914,14.1513762 L9.86775303,14.1570056 L9.42034718,14.1616968 L9.41052949,16.5556084 Z M16.8584111,16.3871949 C16.8682288,16.4134655 16.9233948,16.4176876 17.2548585,16.4176876 L17.6405532,16.4176876 L17.6340081,16.0681943 C17.627463,15.7473172 17.6232554,15.7102569 17.5807121,15.62347 C17.5133908,15.4864874 17.413344,15.425502 17.2557935,15.425502 C17.0664525,15.425502 16.9463027,15.5174492 16.8897342,15.7060348 C16.8654237,15.7862541 16.8401783,16.3393448 16.8584111,16.3871949 Z M17.5783745,18.9664083 C17.06879,19.1090203 16.5082471,18.874461 16.2843104,18.4255147 C16.159018,18.1731289 16.1548105,18.1229332 16.1548105,16.890559 C16.1548105,15.8857072 16.1585505,15.7627982 16.1903411,15.6258156 C16.2805703,15.2373855 16.505442,14.9864071 16.8859941,14.8470789 C17.390436,14.6627153 17.9977299,14.8958672 18.2169915,15.3579489 C18.3319986,15.6018905 18.3460239,15.7060348 18.3581791,16.3928243 L18.3679968,17.0083077 L17.6148402,17.0139371 L16.8616837,17.0186283 L16.8560736,17.4323908 C16.8481259,18.0159742 16.8869291,18.1956466 17.0440121,18.3021365 C17.1758495,18.391269 17.3787483,18.3842322 17.4890804,18.2871247 C17.5928673,18.1956466 17.6223204,18.0976008 17.6326056,17.8119077 L17.6414882,17.5604602 L18.0056775,17.5604602 L18.3693993,17.5604602 L18.3581791,17.840993 C18.351634,17.995333 18.3324661,18.1731289 18.3161033,18.2355217 C18.217459,18.600965 17.9561216,18.8599184 17.5783745,18.9664083 Z M14.5961363,18.264607 C14.6424197,18.2331761 14.6728078,18.1895481 14.6966507,18.1215259 C14.7270388,18.0319243 14.7298438,17.9179285 14.7256363,16.8610045 C14.7214287,15.7595143 14.7190911,15.694776 14.6835605,15.6225317 C14.5923963,15.4381682 14.3628495,15.4203417 14.1524706,15.5817184 L14.0832793,15.6342597 L14.0832793,16.890559 L14.0832793,18.1468583 L14.152003,18.1993996 C14.3076835,18.3185556 14.4783241,18.3434189 14.5961363,18.264607 Z M15.0519574,18.9739142 C14.7555568,19.0621084 14.5175949,18.9908024 14.2426997,18.7313799 C14.1571456,18.6506915 14.0776692,18.5850149 14.0659814,18.5850149 C14.0514887,18.5850149 14.0440085,18.6478768 14.0440085,18.7721932 L14.0440085,18.9593715 L13.6905719,18.9593715 L13.3371353,18.9593715 L13.3371353,16.1812518 L13.3371353,13.4036013 L13.6905719,13.4036013 L14.0440085,13.4036013 L14.0440085,14.3099382 C14.0440085,14.808142 14.0510212,15.2162751 14.0585013,15.2162751 C14.0669165,15.2162751 14.1412503,15.1501294 14.2244669,15.0699102 C14.415678,14.8846084 14.5750985,14.80392 14.7775297,14.78797 C15.1393815,14.7607611 15.3544355,14.9470011 15.4530798,15.3734298 C15.4834679,15.5066595 15.487208,15.6586539 15.487208,16.890559 C15.487208,18.391269 15.4867405,18.3978367 15.3670582,18.6647651 C15.3048796,18.8040933 15.166497,18.9406068 15.0519574,18.9739142 Z M11.2899146,18.9556185 C10.9972541,19.0658614 10.7195539,19.0015922 10.6008067,18.7970565 C10.4923447,18.6098782 10.4904747,18.5676576 10.4904747,16.6250379 L10.4904747,14.8419186 L10.8429762,14.8419186 L11.1964128,14.8419186 L11.2015554,16.5213627 C11.2071655,18.1712524 11.2081006,18.2022143 11.2473713,18.2688291 C11.2992648,18.3584307 11.3796763,18.3828249 11.5059036,18.347641 C11.580705,18.3269998 11.631196,18.2904085 11.7518132,18.1698451 L11.9042211,18.0183198 L11.9042211,16.4298846 L11.9042211,14.8419186 L12.2576577,14.8419186 L12.6110943,14.8419186 L12.6110943,16.9004105 L12.6110943,18.9593715 L12.2576577,18.9593715 L11.9042211,18.9593715 L11.9042211,18.7426388 C11.9042211,18.5793855 11.8976759,18.525906 11.8789756,18.525906 C11.8649503,18.525906 11.8009016,18.5793855 11.7368529,18.6450621 C11.5970678,18.7876741 11.4311022,18.9030773 11.2899146,18.9556185 Z M11.5900552,20.6735304 C12.5465781,20.6904187 14.3053459,20.6805672 15.3104897,20.6524201 C15.9869748,20.6331862 17.2202629,20.5834597 17.4502771,20.5656332 C17.5152609,20.5604729 17.6653312,20.5510905 17.7840784,20.5440537 C18.1837983,20.521536 18.4376556,20.4375638 18.6756175,20.2494473 C18.9846408,20.0059748 19.2230703,19.5565593 19.3240521,19.0292701 C19.4198914,18.5305972 19.4839401,17.6420868 19.4965629,16.6334821 C19.5077831,15.7904761 19.4928228,15.3354312 19.4325142,14.6054829 C19.3553752,13.6831959 19.2950666,13.3838983 19.1052581,12.9996903 C18.8542059,12.4906967 18.4914191,12.222361 17.9748219,12.163252 C17.5755695,12.1177476 16.0729964,12.0530092 14.682158,12.0220474 C12.274488,11.9685679 8.31655906,12.0717739 7.81071462,12.2017198 C7.57742776,12.2617669 7.40211198,12.3630965 7.21978358,12.5455836 C6.90047512,12.8645842 6.71019906,13.3219747 6.63352763,13.9552846 C6.45914687,15.4001696 6.4554068,17.1466977 6.62324244,18.6441239 C6.69570629,19.2882235 6.84530909,19.7066772 7.12487931,20.0514793 C7.29972757,20.2668047 7.6008032,20.4497609 7.87008822,20.5041787 C8.05896175,20.5426464 9.00473192,20.5956568 10.3824801,20.6453833 C10.5877165,20.6528892 11.1309616,20.6655554 11.5900552,20.6735304 Z M10.3497018,11.5232166 C10.3623245,11.5438578 11.1196886,11.5532401 11.191685,11.5335372 C11.2234756,11.525093 11.2258131,11.4533179 11.2258131,10.3832586 L11.2258131,9.2423625 L11.2833167,9.05940629 C11.3151073,8.95901493 11.3945838,8.69537035 11.4605025,8.4734773 C11.5264212,8.25111514 11.6063652,7.98512496 11.6372208,7.8819189 C11.9228686,6.947904 12.1958937,6.02843178 12.2029064,5.97635963 L12.211789,5.91209039 L11.8120691,5.9097448 C11.4506848,5.90786833 11.3403528,5.9097448 11.3305351,5.91912717 C11.32586,5.92334924 11.2010352,6.39856626 10.9789685,7.25986779 C10.872844,7.67034646 10.7835499,7.99826028 10.7807448,7.98887791 C10.7774723,7.97855731 10.6507774,7.50990794 10.4983695,6.94696577 C10.3464292,6.38355447 10.2192668,5.92006541 10.2155268,5.91631246 C10.2099167,5.91068304 9.72604512,5.90833745 9.33380529,5.91162128 C9.27676923,5.91209039 9.24544614,5.80090931 9.84058476,7.70037005 C9.92286629,7.9630764 10.0462886,8.33555647 10.1145449,8.52742593 C10.3249238,9.11945345 10.3744797,9.35119798 10.3525068,9.64533527 C10.3356765,9.87473421 10.3328715,11.4955386 10.3497018,11.5232166 Z M15.5156732,11.5917079 C15.7751406,11.6264226 16.0556458,11.5082048 16.3155807,11.2544117 L16.4287178,11.1436997 L16.4287178,11.3341618 C16.4287178,11.4983533 16.4333929,11.5255621 16.4628459,11.5335372 C16.5114668,11.5476107 17.1145531,11.548549 17.1795368,11.5349445 L17.2337678,11.5236857 L17.2337678,9.42672606 L17.2337678,7.33023556 L16.8359179,7.33492675 L16.438068,7.34055617 L16.4333929,8.94118843 L16.4282503,10.5422898 L16.2954778,10.677865 C16.1570952,10.8195388 16.0458281,10.8734875 15.9453138,10.8486242 C15.8359167,10.8209462 15.8382543,10.863636 15.8293716,9.0293827 L15.8209564,7.34055617 L15.4231065,7.34055617 L15.0247891,7.34055617 L15.0247891,9.17246384 C15.0247891,11.1357247 15.0247891,11.1347865 15.1239009,11.3318162 C15.2029099,11.4889709 15.3183846,11.5654372 15.5156732,11.5917079 Z M13.5109958,10.7909226 L13.5114633,10.7909226 C13.4441421,10.8420565 13.3277324,10.8645742 13.2328281,10.8444021 C13.1598967,10.8284521 13.0612524,10.7135181 13.0303968,10.6084355 C12.9897236,10.4686382 12.9892561,8.39044333 13.0294618,8.25064603 C13.0827578,8.06909717 13.2342306,7.97433524 13.3997287,8.01843238 C13.5278261,8.05361626 13.5932773,8.13336641 13.630678,8.30224906 C13.6582611,8.42703457 13.6615336,8.58278191 13.655456,9.4989703 C13.6484434,10.677865 13.6475084,10.6867783 13.5109958,10.7909226 Z M13.1991675,11.5907696 C13.3057595,11.6039049 13.523151,11.5832637 13.6484434,11.5490181 C13.9322212,11.469737 14.2043113,11.2445602 14.324461,10.9888906 C14.4497533,10.7238387 14.4553634,10.6530018 14.4553634,9.42860253 C14.4553634,8.42187427 14.4520909,8.31163143 14.4188978,8.16808117 C14.3431613,7.84298207 14.2019737,7.62437285 13.9691544,7.47378582 C13.60403,7.23641187 13.1865447,7.21154859 12.7994475,7.40341805 C12.5175398,7.54368447 12.3356789,7.775429 12.2417096,8.1155399 C12.2024389,8.25862104 12.1996338,8.3210138 12.1921537,9.31789057 C12.1828035,10.6051517 12.1977638,10.7580843 12.3581193,11.0503451 C12.5156697,11.3374456 12.8429258,11.5476107 13.1991675,11.5907696 Z" id="Combined-Shape" fill="#247F65"></path>
    </g>
</svg>